<svg xmlns="http://www.w3.org/2000/svg" xmlns:xlink="http://www.w3.org/1999/xlink" width="530" height="526"><defs><linearGradient x1="77.3757174%" y1="25.1955386%" x2="31.6816466%" y2="48.4416239%" id="A"><stop stop-color="#fff" offset="0%"/><stop stop-color="#fff" stop-opacity="0" offset="100%"/></linearGradient><linearGradient x1="63.4100369%" y1="35.5067614%" x2="29.8467065%" y2="71.7677063%" id="B"><stop stop-color="#fff" offset="0%"/><stop stop-color="#fff" stop-opacity="0" offset="100%"/></linearGradient><linearGradient x1="60.3056302%" y1="6.70924703%" x2="45.240264%" y2="69.9941656%" id="C"><stop stop-color="#fff" offset="0%"/><stop stop-color="#fff" stop-opacity="0" offset="100%"/></linearGradient><linearGradient x1="49.9377598%" y1="9.89339247%" x2="50.0602361%" y2="88.8202508%" id="D"><stop stop-color="#fff" offset="0%"/><stop stop-color="#fff" stop-opacity="0" offset="100%"/></linearGradient><linearGradient x1="49.9378711%" y1="9.89336188%" x2="50.0601526%" y2="88.820312%" id="E"><stop stop-color="#fff" offset="0%"/><stop stop-color="#fff" stop-opacity="0" offset="100%"/></linearGradient><path id="F" d="M0 .494h328.221v389.917H0z"/><linearGradient x1="71.4228291%" y1="22.7128914%" x2="31.8908408%" y2="68.4354412%" id="G"><stop stop-color="#fb404f" offset="0%"/><stop stop-color="#fd7487" stop-opacity="0" offset="100%"/></linearGradient><linearGradient x1="82.3019986%" y1="24.7070724%" x2="25.7769758%" y2="59.8506859%" id="H"><stop stop-color="#fff" offset="0%"/><stop stop-color="#fff" stop-opacity="0" offset="100%"/></linearGradient></defs><g fill="none" fill-rule="evenodd"><g fill-rule="nonzero"><path d="M391.79 258.194l-71.164-26.775.833-80.572c.191-18.432 13.543-28.409 29.823-22.283s29.322 26.034 29.131 44.465l-.143 13.824 12.211 4.594c16.28 6.125 29.322 26.033 29.131 44.464s-13.542 28.409-29.822 22.284h0zm100.656 6.272l-15.55-23.732v-.001c-2.474-3.777-2.427-8.373.106-10.266l15.41-11.514c1.538-1.15 2.235-3.371 1.818-5.922-1.122-6.84-2.607-13.665-4.434-20.437-.675-2.504-2.303-4.82-4.326-6.199l-21.269-14.501c-3.41-2.324-5.399-7.069-4.443-10.597l5.727-21.121c.582-2.147.093-4.869-1.33-7.225-3.858-6.391-8.006-12.59-12.415-18.555-1.579-2.138-3.741-3.487-5.772-3.634l-21.023-1.527c-3.432-.249-6.923-3.87-7.799-8.087l-5.155-24.805c-.533-2.565-2.072-5.047-4.111-6.574-5.618-4.207-11.409-8.056-17.343-11.503-2.05-1.19-4.163-1.216-5.656-.101l-15.231 11.381c-2.533 1.893-6.592.365-9.067-3.412l-14.261-21.766c-1.515-2.314-3.711-3.877-5.839-4.176-6.045-.852-11.943-1.177-17.662-.999-1.974.061-3.478 1.358-4.043 3.439l-5.647 20.83c-.956 3.527-4.497 4.503-7.906 2.179l-19.337-13.184c-2.083-1.421-4.316-1.651-5.951-.634-4.673 2.909-9.058 6.294-13.117 10.127-1.388 1.31-1.915 3.585-1.391 6.104l5.104 24.557c.876 4.217-1.195 7.434-4.627 7.184l-19.401-1.41c-2.09-.151-3.765 1.002-4.475 3.057-2.028 5.861-3.658 12.079-4.859 18.629-.407 2.215.222 4.881 1.702 7.141l14.395 21.973c2.474 3.776 2.427 8.374-.107 10.265l-14.398 10.759c-1.537 1.148-2.213 3.37-1.82 5.914a206.57 206.57 0 0 0 4.647 21.961c.681 2.537 2.304 4.893 4.351 6.288l20.024 13.651c3.41 2.325 5.398 7.069 4.442 10.596l-5.514 20.333c-.574 2.12-.106 4.801 1.279 7.14 3.957 6.691 8.231 13.181 12.79 19.419 1.582 2.166 3.764 3.536 5.811 3.686l20.447 1.485c3.431.249 6.923 3.87 7.799 8.088l5.165 24.855c.526 2.534 2.038 4.992 4.046 6.524 5.547 4.231 11.267 8.114 17.132 11.604 2.07 1.233 4.217 1.273 5.729.143l15.423-11.525c2.533-1.892 6.593-.365 9.067 3.412l14.861 22.684c1.49 2.273 3.642 3.848 5.738 4.159 5.741.852 11.35 1.229 16.803 1.153 2.009-.028 3.545-1.332 4.117-3.44l5.933-21.883c.956-3.528 4.496-4.503 7.905-2.178l20.735 14.137c2.091 1.424 4.328 1.645 5.967.621a82.77 82.77 0 0 0 12.09-9.21c1.404-1.288 1.915-3.584 1.391-6.102l-5.49-26.417c-.877-4.218 1.194-7.434 4.625-7.185l20.999 1.526c2.111.153 3.792-1.027 4.495-3.115 1.805-5.366 3.281-11.027 4.402-16.963.415-2.195-.237-4.859-1.708-7.104h0zM341.675 26.847l23.496 35.86 24.051-17.97c5.503-4.112 5.605-14.095.231-22.299-2.688-4.102-6.235-6.982-9.799-8.323s-7.144-1.143-9.895.913l-4.127 3.084-4.031-6.152c-2.688-4.102-6.235-6.982-9.799-8.324s-7.144-1.142-9.896.914c-5.501 4.111-5.605 14.094-.231 22.298h0zm-67.089 10.335l32.373 22.071 9.082-33.495c2.077-7.662-2.242-17.966-9.649-23.015-3.702-2.524-7.475-3.257-10.584-2.4s-5.548 3.3-6.586 7.132l-1.559 5.747-5.555-3.787c-3.702-2.524-7.475-3.257-10.583-2.4s-5.548 3.3-6.588 7.131c-2.077 7.662 2.243 17.968 9.649 23.016h0zm-59.782 35.046c1.904 9.16 9.488 17.024 16.941 17.566l32.576 2.367-8.322-40.043c-1.903-9.159-9.488-17.024-16.94-17.565-3.726-.272-6.713 1.34-8.532 4.164s-2.468 6.861-1.514 11.441l1.427 6.871-5.589-.407c-3.727-.27-6.714 1.34-8.533 4.165s-2.466 6.861-1.514 11.441h0zm9.827 98.357l24.052-17.971-23.495-35.861c-5.375-8.203-14.192-11.52-19.695-7.409-2.751 2.056-4.152 5.579-4.194 9.614s1.276 8.581 3.963 12.684l4.032 6.152-4.126 3.084c-2.752 2.056-4.153 5.579-4.195 9.614s1.276 8.581 3.963 12.684c5.375 8.203 14.192 11.521 19.695 7.41h0zm39.603 53.827l-32.373-22.07c-7.406-5.048-15.094-2.93-17.171 4.732-1.039 3.831-.478 8.323 1.267 12.487s4.678 8.002 8.381 10.528l5.554 3.787-1.558 5.748c-1.039 3.83-.478 8.322 1.267 12.487s4.677 8.002 8.381 10.528c7.405 5.048 15.093 2.93 17.171-4.732l9.081-33.495zm50.895 103.95l-8.321-40.042-32.577-2.367c-7.452-.54-11.951 6.446-10.048 15.607.952 4.579 3.324 8.835 6.39 12.014s6.825 5.28 10.551 5.55l5.589.407 1.429 6.871c.951 4.579 3.324 8.835 6.389 12.014s6.825 5.28 10.551 5.551c7.452.541 11.951-6.446 10.047-15.606h0zm73.362 34.71l-23.495-35.861-24.052 17.972c-5.501 4.111-5.605 14.094-.23 22.298 2.687 4.101 6.236 6.982 9.8 8.324s7.143 1.141 9.895-.914l4.126-3.083 4.031 6.153c2.687 4.101 6.235 6.982 9.8 8.323s7.144 1.142 9.895-.914c5.502-4.111 5.605-14.094.23-22.298h0zm67.091-10.336l-32.374-22.07-9.081 33.494c-2.077 7.663 2.242 17.968 9.647 23.016 3.704 2.524 7.477 3.258 10.584 2.401s5.549-3.302 6.588-7.133l1.558-5.747 5.554 3.787c3.703 2.524 7.476 3.258 10.584 2.401s5.549-3.302 6.587-7.133c2.078-7.662-2.242-17.967-9.647-23.016h0zm59.781-35.045c-1.903-9.16-9.488-17.024-16.94-17.567l-32.577-2.366 8.322 40.041c1.904 9.16 9.488 17.024 16.94 17.567 3.726.27 6.713-1.341 8.533-4.165s2.466-6.861 1.514-11.441l-1.429-6.87 5.59.406c3.726.27 6.714-1.341 8.532-4.165s2.468-6.861 1.515-11.441h0zm9.541-59.413l-4.031-6.153 4.127-3.083c2.751-2.055 4.151-5.578 4.194-9.614s-1.277-8.581-3.964-12.684c-5.375-8.203-14.192-11.522-19.694-7.41l-24.052 17.971 23.495 35.86c5.374 8.204 14.192 11.522 19.695 7.41 2.751-2.055 4.152-5.578 4.194-9.614s-1.277-8.581-3.964-12.684h0zm-58.971-92.772l32.374 22.07c7.405 5.049 15.093 2.931 17.171-4.731 1.039-3.831.479-8.323-1.268-12.487s-4.677-8.003-8.38-10.528l-5.554-3.787 1.558-5.747c1.039-3.831.479-8.323-1.268-12.487s-4.677-8.004-8.379-10.529c-7.407-5.049-15.094-2.93-17.171 4.732l-9.083 33.494zM425.083 45.951c3.726.27 7.487 2.372 10.552 5.551s5.438 7.435 6.39 12.015l1.427 6.87 5.59.406c3.726.27 7.485 2.372 10.551 5.551s5.438 7.435 6.389 12.015c1.904 9.159-2.594 16.147-10.046 15.605l-32.578-2.367-8.321-40.041c-1.903-9.16 2.594-16.147 10.046-15.606h0z" fill="url(#A)" opacity=".06"/><path d="M39.345 256.83c4.143 2.353 7.457 8.165 7.457 12.94v21.105l13.948 8.027c4.143 2.353 7.457 8.165 7.457 12.94s-3.314 6.712-7.457 4.359l-13.948-8.027v21.105c0 4.775-3.314 6.712-7.457 4.359s-7.457-8.165-7.457-12.94v-21.105l-13.948-8.027c-4.143-2.353-7.457-8.165-7.457-12.94s3.314-6.712 7.457-4.359l13.948 8.027v-21.105c0-4.844 3.314-6.781 7.457-4.359z" fill="url(#B)" opacity=".2"/><path fill="url(#C)" opacity=".25" d="M95.145 235.593L223.1 309.379v236.813L95.145 472.338z"/><path opacity=".15" d="M107.652 375.988l102.941 59.838v9.397l-102.941-59.838zm6.734 22.117l89.472 51.229v9.352l-89.472-51.229z" fill="#fff"/></g><path d="M152.869 443.102l-89.472-50.767v26.161l89.472 50.767zm21.165-113.718c0 11.539-6.666 16.965-14.912 12.157s-14.912-17.996-14.912-29.535 6.666-16.965 14.912-12.157 14.912 17.996 14.912 29.535zm-15.359 20.828c-13.158-7.672-23.998-.475-25.975 16.023-.341 2.851 1.841 6.653 4.5 8.147l42.882 24.984c2.659 1.562 4.84.272 4.5-2.919-1.841-18.806-12.749-38.631-25.907-46.234z" fill="#fb404f"/><g fill-rule="nonzero"><path fill="url(#D)" opacity=".25" d="M458.807 444.696l-203.959-117.75V433.25L458.807 551z"/><path opacity=".15" d="M322.193 401.951l58.686 34.7v9.534l-58.686-34.7zm-.962 18.271l120.259 69.486v9.366l-120.259-69.486z" fill="#fff"/></g><path d="M481.897 476.759l-89.472-50.767v26.161l89.472 50.767zm-177.983-70.743c0 11.74-6.91 17.336-15.393 12.422s-15.393-18.428-15.393-30.168 6.91-17.336 15.393-12.422 15.393 18.428 15.393 30.168z" fill="#fb404f"/><path fill="url(#E)" fill-rule="nonzero" opacity=".25" d="M203.959 211.832L0 94.082v106.304l203.959 117.75z"/><g transform="translate(181.731 19.232)"><g transform="translate(0 .467)"><mask id="I" fill="#fff"><use xlink:href="#F"/></mask><path d="M140.703 27.341l23.496 35.86 24.051-17.971c5.502-4.112 5.605-14.095.231-22.298-2.688-4.102-6.235-6.982-9.8-8.323s-7.143-1.143-9.895.913l-4.127 3.083-4.03-6.151c-2.688-4.102-6.236-6.983-9.801-8.324s-7.142-1.142-9.894.914c-5.502 4.111-5.605 14.094-.231 22.298h0zM73.614 37.676l32.372 22.07 9.082-33.494c2.078-7.663-2.243-17.967-9.648-23.015C101.718.713 97.945-.02 94.836.836s-5.548 3.301-6.586 7.132l-1.56 5.747-5.554-3.786c-3.703-2.524-7.476-3.257-10.583-2.401s-5.549 3.301-6.588 7.132c-2.077 7.662 2.242 17.967 9.649 23.016h0zM13.831 72.721c1.904 9.161 9.489 17.025 16.94 17.567l32.578 2.367-8.322-40.042c-1.903-9.159-9.488-17.024-16.94-17.566-3.726-.271-6.714 1.34-8.532 4.165s-2.468 6.861-1.515 11.44l1.428 6.871-5.59-.406c-3.726-.27-6.713 1.34-8.532 4.165s-2.467 6.861-1.515 11.44h0zm9.828 98.358l24.052-17.972-23.495-35.86c-5.375-8.203-14.192-11.521-19.695-7.41-2.751 2.056-4.152 5.579-4.194 9.614s1.276 8.582 3.963 12.685l4.031 6.152-4.126 3.083c-2.751 2.056-4.152 5.58-4.194 9.615s1.276 8.581 3.963 12.684c5.375 8.203 14.192 11.521 19.695 7.41h0zm39.603 53.827l-32.374-22.07c-7.405-5.049-15.093-2.931-17.17 4.732-1.039 3.83-.478 8.322 1.267 12.486s4.678 8.003 8.38 10.528l5.555 3.788-1.559 5.747c-1.039 3.831-.478 8.323 1.268 12.487s4.677 8.003 8.38 10.528c7.406 5.049 15.094 2.931 17.171-4.732l9.082-33.494zm50.894 103.95l-8.321-40.042-32.577-2.367c-7.452-.54-11.95 6.446-10.047 15.606.951 4.58 3.324 8.836 6.39 12.015s6.824 5.28 10.551 5.55l5.589.406 1.428 6.871c.952 4.58 3.325 8.836 6.39 12.015s6.825 5.28 10.551 5.55c7.452.542 11.951-6.446 10.046-15.605h0zm73.363 34.709l-23.495-35.86-24.052 17.972c-5.502 4.111-5.605 14.093-.23 22.297 2.687 4.102 6.235 6.982 9.8 8.324s7.143 1.142 9.895-.914l4.126-3.084 4.03 6.153c2.688 4.101 6.236 6.982 9.801 8.323s7.143 1.143 9.895-.913c5.502-4.111 5.605-14.094.23-22.299h0zm67.09-10.335l-32.373-22.071-9.081 33.495c-2.079 7.662 2.242 17.967 9.647 23.016 3.704 2.524 7.476 3.257 10.584 2.4s5.549-3.301 6.588-7.132l1.558-5.748 5.554 3.788c3.703 2.524 7.476 3.257 10.584 2.4s5.549-3.301 6.587-7.132c2.078-7.662-2.242-17.967-9.648-23.016h0zm59.782-35.045c-1.903-9.16-9.488-17.025-16.94-17.567l-32.578-2.366 8.322 40.041c1.904 9.16 9.488 17.024 16.94 17.567 3.726.27 6.714-1.341 8.532-4.165s2.468-6.861 1.516-11.442l-1.429-6.87 5.59.407c3.726.27 6.713-1.341 8.532-4.165s2.467-6.861 1.515-11.441h0zm9.541-59.413l-4.031-6.153 4.127-3.083c2.751-2.055 4.151-5.579 4.194-9.615s-1.277-8.58-3.964-12.683c-5.375-8.203-14.192-11.522-19.695-7.41l-24.052 17.971 23.496 35.86c5.374 8.204 14.191 11.522 19.695 7.41 2.751-2.055 4.151-5.579 4.194-9.614s-1.277-8.581-3.964-12.684h0zM264.96 166l32.374 22.07c7.405 5.049 15.093 2.931 17.17-4.731 1.039-3.831.478-8.324-1.267-12.488s-4.677-8.002-8.38-10.527l-5.554-3.787 1.558-5.747c1.039-3.831.478-8.323-1.268-12.488s-4.677-8.003-8.38-10.528c-7.406-5.049-15.093-2.93-17.171 4.731L264.96 166zM224.111 46.445c3.726.27 7.487 2.372 10.552 5.551s5.437 7.434 6.389 12.015l1.428 6.869 5.59.407c3.726.27 7.485 2.372 10.55 5.551s5.439 7.434 6.39 12.015c1.904 9.159-2.594 16.146-10.046 15.605l-32.578-2.367-8.321-40.041c-1.904-9.161 2.594-16.147 10.046-15.606h0z" fill="url(#G)" mask="url(#I)"/></g><path d="M190.818 259.154l-71.164-26.774.833-80.572c.191-18.432 13.543-28.409 29.823-22.284s29.322 26.034 29.131 44.466l-.143 13.824 12.211 4.594c16.28 6.125 29.322 26.032 29.131 44.464s-13.542 28.409-29.822 22.283m100.656 6.273l-15.55-23.733c-2.474-3.777-2.427-8.373.106-10.266l15.41-11.515c1.538-1.149 2.235-3.37 1.818-5.921-1.123-6.84-2.607-13.665-4.434-20.437-.675-2.505-2.303-4.82-4.326-6.199l-21.269-14.501c-3.411-2.325-5.399-7.07-4.443-10.597l5.727-21.121c.582-2.147.093-4.869-1.33-7.226a239.6 239.6 0 0 0-12.415-18.554c-1.579-2.139-3.741-3.487-5.772-3.634l-21.023-1.527c-3.432-.25-6.923-3.871-7.8-8.088l-5.154-24.805c-.533-2.564-2.072-5.047-4.112-6.574-5.618-4.207-11.408-8.056-17.342-11.503-2.051-1.19-4.163-1.217-5.657-.101l-15.23 11.381c-2.534 1.893-6.592.365-9.068-3.412L145.35 45.329c-1.514-2.313-3.71-3.876-5.838-4.175-6.045-.853-11.943-1.178-17.662-1-1.974.062-3.479 1.359-4.043 3.439l-5.647 20.83v.001c-.956 3.527-4.497 4.503-7.906 2.178L84.917 53.418c-2.083-1.42-4.317-1.65-5.951-.633a82.88 82.88 0 0 0-13.117 10.127c-1.388 1.31-1.915 3.585-1.392 6.104l5.105 24.557c.876 4.217-1.195 7.433-4.627 7.184l-19.401-1.41c-2.09-.152-3.765 1.001-4.476 3.057-2.027 5.86-3.657 12.079-4.858 18.628-.407 2.216.221 4.882 1.702 7.142l14.395 21.973c2.474 3.776 2.427 8.373-.107 10.265l-14.399 10.759c-1.536 1.148-2.212 3.37-1.819 5.914a206.57 206.57 0 0 0 4.647 21.961c.681 2.537 2.304 4.893 4.351 6.288l20.024 13.651c3.41 2.324 5.398 7.068 4.441 10.596l-5.513 20.333c-.574 2.12-.106 4.8 1.279 7.14 3.957 6.691 8.231 13.18 12.79 19.419 1.582 2.166 3.764 3.536 5.811 3.686l20.447 1.485c3.431.248 6.923 3.87 7.799 8.087v.001l5.164 24.854c.527 2.535 2.039 4.993 4.047 6.524 5.547 4.231 11.267 8.113 17.131 11.604 2.071 1.232 4.218 1.273 5.73.143l15.423-11.525c2.533-1.893 6.593-.365 9.067 3.412l14.861 22.683c1.49 2.274 3.642 3.849 5.738 4.16 5.741.851 11.35 1.228 16.803 1.152 2.009-.028 3.545-1.331 4.117-3.439l5.933-21.884c.956-3.527 4.496-4.502 7.905-2.178v.001l20.735 14.136c2.091 1.425 4.328 1.646 5.967.622 4.283-2.677 8.322-5.754 12.09-9.21 1.404-1.288 1.915-3.584 1.391-6.102l-5.49-26.417h-.001c-.876-4.218 1.195-7.435 4.626-7.185l20.999 1.525c2.111.154 3.792-1.026 4.495-3.114 1.805-5.366 3.281-11.027 4.401-16.963.416-2.195-.236-4.859-1.707-7.104" fill="url(#H)" fill-rule="nonzero" opacity=".4"/></g><path opacity=".15" d="M66.383 171.01l100.055 57.981v9.332L66.383 180.342zm0 18.271l120.259 69.486v9.366L66.383 198.647z" fill-rule="nonzero" fill="#fff"/><path d="M38.41 149.914c0-1.151-.819-2.505-1.775-3.046l-7.85-4.468c-.956-.542-1.775-.135-1.775 1.015v7.718c0 1.557-1.707 2.573-3.072 1.76l-4.847-2.776c-.956-.542-1.775-.135-1.775 1.015v11.577c0 1.151.819 2.505 1.775 3.046l6.894 3.927c.614.338 1.024 1.015 1.024 1.76v10.087c0 1.151.819 2.505 1.775 3.046l7.85 4.468c.956.542 1.775.135 1.775-1.015v-7.718c0-1.557 1.707-2.573 3.072-1.76l4.847 2.776c.956.542 1.775.135 1.775-1.015v-11.577c0-1.151-.819-2.505-1.775-3.046l-6.894-3.927c-.614-.338-1.024-1.015-1.024-1.76v-10.087z" fill="#fb404f"/></g></svg>
