<svg xmlns="http://www.w3.org/2000/svg" viewBox="0 0 640 320"><defs><linearGradient id="A" x1="34.67" y1="159.62" x2="175.87" y2="159.62" gradientUnits="userSpaceOnUse"><stop offset="0" stop-color="#68f5a2"/><stop offset="1" stop-color="#4fc67f"/></linearGradient></defs><path d="M71.77 227.76l10.58 10.57-10.58 10.56-10.56-10.56zm10.58-10.57l10.56 10.57-10.56 10.57 10.56 10.56 31.71-31.7-21.14-21.14zm12.11-42.32V145h-29.9v15h-15v14.94zM34.67 145v15h14.94v-15zm68.38-21.36l21.14-21.14-21.14-21.16-10.57 10.57-10.57-10.57-10.57 10.57zM81.91 60.2L71.34 70.77l10.57 10.57 10.57-10.57zm93.35-26.53h-14.95v14.95h14.95zm0 29.89h-14.95V48.62h-14.95v44.84h29.9zM146 225.77v29.9h14.95v15h15v-44.9zm0 59.8h14.95v-14.95H146zm29.6-140.9h-29.9v29.9h29.9z" fill="url(#A)"/><path d="M224.91 42.27h24.42c8.61 0 14.67 5.32 14.67 12.81 0 5.39-2.69 8.76-7.34 11.38 6 2.92 9.44 7.57 9.44 13.26 0 8.24-6.59 14-15.8 14h-25.39zm22.54 21.42c5.17 0 8.84-3.07 8.84-7.34s-3.67-7.41-8.84-7.41h-15v14.75zm1.13 23.37c5.76 0 9.81-3.52 9.81-8.47s-4-8.46-9.81-8.46h-16.11v16.93zm61.7-18v24.66H303V70.36c0-5.77-3.67-9.81-8.91-9.81-5.84 0-10.71 4.11-10.71 9.13v24h-7.34V41.37h7.34v19.4a14.44 14.44 0 0 1 12.35-6.66c8.56 0 14.55 6.21 14.55 14.97zm43.81 1.2v23.46h-7.26V88.4c-2.85 4-8.17 6.22-12.88 6.22-8.24 0-14.31-4.79-14.31-12.36s7-12.88 15.5-12.88a37.48 37.48 0 0 1 11.69 2.1v-1.2c0-4.87-2.25-10-10-10-3.82 0-7.57 1.49-10.94 3.22l-2.65-5.5a32.83 32.83 0 0 1 14.68-3.89c10.41 0 16.17 6.59 16.17 16.17zm-7.26 11.31v-5.15a36.11 36.11 0 0 0-10.56-1.5c-5.17 0-9.51 2.93-9.51 7.12s3.74 6.74 8.61 6.74 10.18-2.4 11.46-7.19zm40.88-27.48v6.44c-8 0-13.7 4.41-14.37 11.15v22h-7.42V55h7.42v7.42c2.47-5.09 7.71-8.31 14.37-8.31zm40.44 16.17v23.46h-7.26V88.4c-2.85 4-8.16 6.22-12.88 6.22-8.24 0-14.31-4.79-14.31-12.36s7-12.88 15.51-12.88a37.42 37.42 0 0 1 11.68 2.1v-1.2c0-4.87-2.25-10-10-10-3.82 0-7.57 1.49-10.94 3.22L397.3 58a32.83 32.83 0 0 1 14.7-3.89c10.39 0 16.15 6.59 16.15 16.17zm-7.26 11.31v-5.15a36.11 36.11 0 0 0-10.56-1.5c-5.17 0-9.51 2.93-9.51 7.12s3.74 6.74 8.61 6.74 10.19-2.4 11.46-7.19zm39.54 10.26a12.48 12.48 0 0 1-7.72 2.77c-6 0-10.18-4.34-10.18-10.56V61.29h-5.84V55h5.84V44.37h7.26V55h9.14v6.29h-9.14v22.25c0 2.69 1.8 4.64 4 4.64a5.79 5.79 0 0 0 4-1.42zm-228.78 47.35v15h27.26v7h-27.26v22.4H224v-51.44h37.82v7zm38.27-5.25a4.46 4.46 0 0 1 8.91 0 4.46 4.46 0 1 1-8.91 0zm.75 10.94h7.41v38.72h-7.41zm47.7 28.83l4.64 4.79c-3.44 3.67-10.18 6-15.65 6a19.87 19.87 0 0 1-19.92-20.37c0-11.6 8.61-20.14 19.32-20.14 11.83 0 18.65 9 18.65 22.84h-30.48c1 6.44 5.69 11.09 12.36 11.09 4.04-.01 8.76-1.81 11.08-4.21zM295 160.9h23.22c-.82-6-4.49-10.34-11.16-10.34-5.99 0-10.86 4.04-12.06 10.34zm39.77-29.66h7.34v52.35h-7.34zm56 0v52.35h-7.34v-6.74a15.72 15.72 0 0 1-13.78 7.63c-10.19 0-17.83-8.38-17.83-20.29S359.48 144 369.67 144a15.83 15.83 0 0 1 13.78 7.56v-20.32zm-7.34 32.95c0-8.09-5-13.78-12-13.78s-12.13 5.69-12.13 13.78 5 13.85 12.13 13.85 12.02-5.76 12.02-13.85zm17.44-6.37c0-14.45 12.28-26.58 26.74-26.58a26.62 26.62 0 0 1 0 53.24c-14.44 0-26.72-12.2-26.72-26.66zm45.61 0c0-10.63-8.61-19.62-18.87-19.62s-18.95 9-18.95 19.62 8.69 19.7 18.95 19.7 18.89-8.99 18.89-19.7zm56.84 6.37c0 11.91-7.64 20.29-17.82 20.29a15.7 15.7 0 0 1-13.78-7.63v19.62h-7.32v-51.6h7.34v6.66a15.81 15.81 0 0 1 13.78-7.53c10.18 0 17.82 8.36 17.82 20.19zm-7.49 0c0-8.09-5-13.78-12.13-13.78s-12 5.69-12 13.78 5 13.85 12 13.85 12.15-5.76 12.15-13.85zm14.68 14.53l3.52-5.32a22.24 22.24 0 0 0 13.1 4.72c4.35 0 7.34-2 7.34-5 0-3.59-4-4.72-8.76-6.06-8.91-2.48-13.33-5-13.33-11.31-.08-7.12 5.84-11.76 14.08-11.76a26.44 26.44 0 0 1 14.3 4.49l-3.29 5.47a21.7 21.7 0 0 0-11-3.59c-3.82 0-6.82 1.64-6.82 4.56s2.4 3.9 8.91 5.92 13.19 4 13.19 11.68c0 7.34-6.22 12-14.68 12a27.1 27.1 0 0 1-16.54-5.8zM231.65 229v15h27.26v7h-27.26v22.39H224V222h37.82v7zm67.92 34.53l4.65 4.79c-3.45 3.67-10.19 6-15.65 6A19.88 19.88 0 0 1 268.64 254c0-11.61 8.62-20.15 19.33-20.15 11.83 0 18.64 9 18.64 22.85h-30.48c1 6.44 5.7 11.08 12.36 11.08 4.04-.02 8.76-1.78 11.08-4.21zm-23.36-12.81h23.21c-.82-6-4.49-10.33-11.15-10.33-6 .04-10.86 4.08-12.06 10.37zM316 221.1h7.34v52.35H316zm18.87 0h7.34v52.35h-7.34zm16.78 33a20.37 20.37 0 1 1 20.44 20.29 20.58 20.58 0 0 1-20.47-20.33zm33.32 0c0-7.49-5.91-13.78-12.88-13.78s-13 6.29-13 13.78 5.92 13.85 13 13.85 12.85-6.33 12.85-13.89zM397 234.73h7.56l8.91 28.84 9.59-28.84h6.29l9.59 28.84 8.83-28.84h7.57l-13 38.72h-6.82l-9.28-28.76-9.37 28.76H410zm64 33.85l3.52-5.31a22.32 22.32 0 0 0 13.1 4.71c4.35 0 7.34-2 7.34-5 0-3.6-4-4.72-8.76-6.07-8.91-2.47-13.33-5-13.33-11.31-.08-7.11 5.84-11.76 14.08-11.76a26.45 26.45 0 0 1 14.3 4.5L488 243.8a21.63 21.63 0 0 0-11-3.6c-3.82 0-6.82 1.65-6.82 4.57s2.4 3.89 8.92 5.92c6.36 1.87 13.18 4 13.18 11.68 0 7.34-6.22 12-14.68 12a27.07 27.07 0 0 1-16.6-5.79zm74.81-19.77v24.64h-7.26v-23.36c0-5.77-3.67-9.81-8.92-9.81-5.84 0-10.71 4.11-10.71 9.13v24h-7.33V221.1H509v19.4a14.46 14.46 0 0 1 12.36-6.67c8.49 0 14.48 6.22 14.48 14.98zm10.56-25a4.46 4.46 0 0 1 8.91 0 4.46 4.46 0 1 1-8.91 0zm.75 10.93h7.41v38.72h-7.41zm58.18 19.33c0 11.9-7.63 20.29-17.82 20.29a15.73 15.73 0 0 1-13.78-7.64v19.62h-7.34v-51.6h7.34v6.67a15.82 15.82 0 0 1 13.78-7.57c10.22-.01 17.85 8.38 17.85 20.22zm-7.48 0c0-8.09-5-13.78-12.14-13.78-7 0-12 5.69-12 13.78s5 13.85 12 13.85c7.15-.01 12.17-5.78 12.17-13.86z" fill="#28292d"/></svg>