<svg xmlns="http://www.w3.org/2000/svg" xmlns:xlink="http://www.w3.org/1999/xlink" viewBox="0 0 512 512"><defs><linearGradient id="A" x1="142.77" y1="106.99" x2="362.75" y2="405.09" gradientUnits="userSpaceOnUse"><stop offset="0" stop-color="#e1e5e2"/><stop offset="1" stop-color="#cdd3ce"/></linearGradient><linearGradient id="B" x1="11.89" y1="356.41" x2="470.34" y2="479.77" xlink:href="#A"/></defs><path d="M309.38 112.24l9.64 36 36-9.65a15.44 15.44 0 0 0-8-29.82l-6.18 1.66-1.65-6.18a15.44 15.44 0 0 0-29.82 8zm57.38 82.7l36 9.64a15.432 15.432 0 1 0 8-29.81l-6.17-1.66 1.65-6.18a15.44 15.44 0 0 0-29.82-8zm66.17 68.83l-4.52-4.52 4.52-4.52a15.44 15.44 0 0 0-21.83-21.83l-26.35 26.35 26.35 26.35a15.44 15.44 0 0 0 21.83-21.83zm-9.86 61.44a15.43 15.43 0 0 0-18.9-10.91l-36 9.64 9.65 36a15.44 15.44 0 0 0 29.82-8l-1.64-6.17 6.18-1.65a15.43 15.43 0 0 0 10.91-18.91zm-65.6 56.11l-36-9.64-9.64 36a15.44 15.44 0 0 0 29.82 8l1.65-6.18 6.18 1.65a15.44 15.44 0 0 0 8-29.82zM283.51 416l-26.35-26.35L230.81 416a15.44 15.44 0 0 0 21.83 21.83l4.52-4.52 4.52 4.52A15.44 15.44 0 1 0 283.51 416zm-81.4-6.91l-9.64-36-36 9.65a15.44 15.44 0 1 0 8 29.82l6.18-1.66 1.65 6.18a15.44 15.44 0 0 0 29.82-8zm-57.38-82.7l-36-9.64a15.44 15.44 0 1 0-8 29.82l6.17 1.65-1.65 6.18a15.44 15.44 0 0 0 29.82 8zm-44.34-37.96l26.35-26.35-26.35-26.35a15.44 15.44 0 0 0-21.83 21.83l4.52 4.52-4.52 4.52a15.44 15.44 0 0 0 21.83 21.83zm-11.97-92.31a15.43 15.43 0 0 0 18.9 10.88l36-9.64-9.65-36a15.44 15.44 0 0 0-29.82 8l1.66 6.18-6.18 1.65a15.43 15.43 0 0 0-10.91 18.91zM154 140l36 9.64 9.64-36a15.44 15.44 0 1 0-29.82-8l-1.65 6.17-6.17-1.62a15.44 15.44 0 0 0-8 29.81zm74-34.69l26.35 26.35 26.35-26.35a15.44 15.44 0 0 0-21.83-21.83L254.33 88l-4.52-4.52A15.44 15.44 0 1 0 228 105.31z" fill="#fb404f"/><path d="M397.16 281.72l-17.44-17.44h0a7.12 7.12 0 0 1 0-10h0l16.89-16.89a7.07 7.07 0 0 0 1.94-6.44 145.13 145.13 0 0 0-5.13-18.3 7.07 7.07 0 0 0-4.85-4.46l-23.65-6.34h0a7.11 7.11 0 0 1-5-8.7h0L366 170.4a7.12 7.12 0 0 0-1.55-6.56 148.28 148.28 0 0 0-13.92-13.54 7.09 7.09 0 0 0-6.42-1.42l-23.23 6.22h0a7.1 7.1 0 0 1-8.7-5h0l-6-22.3a7 7 0 0 0-4.61-4.9 145.41 145.41 0 0 0-19.28-4.9 7.07 7.07 0 0 0-6.25 2l-16.68 16.69h0a7.12 7.12 0 0 1-10.05 0h0l-16-16a7.12 7.12 0 0 0-6.49-1.93 144.36 144.36 0 0 0-19.51 5.51 7.08 7.08 0 0 0-4.43 4.83l-6 22.39h0a7.11 7.11 0 0 1-8.7 5h0l-21.5-5.77a7.14 7.14 0 0 0-6.58 1.57A145.49 145.49 0 0 0 145.73 167a7.14 7.14 0 0 0-1.46 6.46l5.91 22.08h0a7.1 7.1 0 0 1-5 8.7h0L123.72 210a7.1 7.1 0 0 0-4.91 4.62 144.1 144.1 0 0 0-5.15 19.95 7.14 7.14 0 0 0 2 6.34l16.15 16.14h0a7.12 7.12 0 0 1 0 10.05h0L116 282.88a7.14 7.14 0 0 0-1.94 6.43 144.41 144.41 0 0 0 5.37 19.69 7.13 7.13 0 0 0 4.88 4.53l22.26 6h0a7.11 7.11 0 0 1 5 8.7h0l-5.86 21.85a7.1 7.1 0 0 0 1.49 6.5 146.13 146.13 0 0 0 14.35 14.24 7.05 7.05 0 0 0 6.45 1.46l22.6-6h0a7.1 7.1 0 0 1 8.7 5h0l6 22.35a7.07 7.07 0 0 0 4.54 4.87 143.7 143.7 0 0 0 19 5 7.05 7.05 0 0 0 6.33-2l16.89-16.9h0a7.12 7.12 0 0 1 10.05 0h0l16.67 16.67a7.06 7.06 0 0 0 6.38 1.95 142.32 142.32 0 0 0 18.57-5 7 7 0 0 0 4.5-4.86l6.31-23.52h0a7.11 7.11 0 0 1 8.7-5h0l23.13 6.16a7.11 7.11 0 0 0 6.59-1.58A144.58 144.58 0 0 0 366.2 356a7 7 0 0 0 1.47-6.46l-6.36-23.75h0a7.1 7.1 0 0 1 5-8.7h0l23.21-6.22a7.12 7.12 0 0 0 4.92-4.68 144.7 144.7 0 0 0 4.69-18.19 7.08 7.08 0 0 0-1.97-6.28zM286 312.53h-78.92v-78.88a32.67 32.67 0 0 1 65.34 0v13.54H286a32.67 32.67 0 0 1 0 65.34z" fill="url(#A)"/><path d="M255.74,501.54A240.61,240.61,0,0,1,56.57,396.16a5.59,5.59,0,1,1,9.24-6.29,229.74,229.74,0,0,0,380.4-.78,5.59,5.59,0,1,1,9.27,6.26A240.8,240.8,0,0,1,255.74,501.54Z" fill="url(#B)"/><path d="M63.69 352.44l-34.53 14-5.35-13.22a15.91 15.91 0 0 1-1.36-6.7 9 9 0 0 1 1.69-5 9.17 9.17 0 0 1 4.08-3.1 8 8 0 0 1 3.93-.65 7.38 7.38 0 0 1 3.3 1.19 9.92 9.92 0 0 1 2.55 2.5l.34-.14a8.2 8.2 0 0 1-.32-4 8.63 8.63 0 0 1 1.76-3.94 9.42 9.42 0 0 1 4-2.89 9.83 9.83 0 0 1 5.34-.66 9.54 9.54 0 0 1 5 2.55 16.76 16.76 0 0 1 3.9 6.08zm-22.38 1.79l-2.5-6.18a7.55 7.55 0 0 0-1.81-2.68 5.32 5.32 0 0 0-2.51-1.37 4.91 4.91 0 0 0-2.92.32 4.64 4.64 0 0 0-2.74 2.74 6.45 6.45 0 0 0 .4 4.7l2.56 6.32zm14.62-5.92l-2.73-6.73q-1.38-3.4-3.3-4.38a4.56 4.56 0 0 0-4-.15 5.56 5.56 0 0 0-3.55 4.83 7.86 7.86 0 0 0 .64 3.63l2.79 6.9zM51.41 321L15 329l-1.44-6.59L29 319l-3.69-16.87-15.43 3.39-1.44-6.61 36.39-8 1.44 6.61-15.45 3.39 3.69 16.86L50 314.41zm-7.65-42.16L44 286 6.31 274.34 6 266l36.73-14.52.27 7.19-29.21 11.07v.26zm-14.6.32l-.74-19.63 5.41-.21.74 19.68zm14.16-32.68L6.37 241.7l1.8-13.85a15.7 15.7 0 0 1 2.4-7 10.2 10.2 0 0 1 4.71-3.85 12.56 12.56 0 0 1 6.39-.69 12.21 12.21 0 0 1 6 2.3 10.05 10.05 0 0 1 3.45 4.95 16.53 16.53 0 0 1 .49 7.37l-1.28 9.86-5.55-.72 1.16-9a10.36 10.36 0 0 0-.17-4.17 4.91 4.91 0 0 0-1.77-2.54 6.72 6.72 0 0 0-3.22-1.19 6.83 6.83 0 0 0-3.46.34 5 5 0 0 0-2.43 2.09 9.72 9.72 0 0 0-1.26 4l-.8 6.13 31.36 4.06zm-14.27-21.25l17.92-7-1 7.46-17.87 6.84zm20.41-16.44l-2.09 6.9-31.86-23.35 2.42-8 39.46-1.78-2.09 6.89-31.23 1-.08.28zm-13.92-4.45l5.69-18.81 5.19 1.57-5.69 18.81zm-6.91-34.27l-5.12-2.41 12.65-26.89 5.12 2.41-4.9 10.42L65 167.05l-2.85 6-28.62-13.4zM88.53 129l-28-24.55 15.73-18 4.25 3.73-11.29 12.92 7.6 6.67L87 98.13l4.25 3.73-10.17 11.64L93 123.93zm.54-54.4l25.22 27.4-5 4.57L84.1 79.16zm31.02 22.03L98 66.62l19.52-14.35 3.36 4.56-14.07 10.35 6 8.15 13.07-9.61 3.36 4.56-13.08 9.61 6 8.19 14.2-10.44 3.35 4.56zm25.68-18.1l-17.59-32.84 5.95-3.18 14.92 27.85 14.46-7.75 2.67 5zm37.78-17.73L171.64 65l-12.33-35.18 12.15-4.26a19.24 19.24 0 0 1 9.74-1.06 15 15 0 0 1 7.91 4 21.56 21.56 0 0 1 5.33 8.7 21.55 21.55 0 0 1 1.27 10.15 15 15 0 0 1-3.71 8.12 19.86 19.86 0 0 1-8.45 5.33zm-7.48-3.57l5.24-1.84A13.26 13.26 0 0 0 187 51.9a9 9 0 0 0 2.28-5.33 17 17 0 0 0-1.12-7.15 16.83 16.83 0 0 0-3.59-6.27 9 9 0 0 0-5.05-2.72 12.91 12.91 0 0 0-6.44.76l-5.43 1.91zm90.57-28.08a22 22 0 0 1-2 10.36 16 16 0 0 1-5.93 6.71 18 18 0 0 1-17.52.45 16.12 16.12 0 0 1-6.28-6.4 21.85 21.85 0 0 1-2.51-10.22 21.88 21.88 0 0 1 2-10.36 16 16 0 0 1 5.93-6.69 18 18 0 0 1 17.51-.46 16.1 16.1 0 0 1 6.28 6.39 22 22 0 0 1 2.52 10.22zm-6.78.17a17.48 17.48 0 0 0-1.51-7.12 10 10 0 0 0-3.76-4.32 10.35 10.35 0 0 0-10.73.28 10 10 0 0 0-3.53 4.52 17.21 17.21 0 0 0-1.13 7.19 17.32 17.32 0 0 0 1.5 7.13 10 10 0 0 0 3.77 4.32A10.35 10.35 0 0 0 255.2 41a9.93 9.93 0 0 0 3.52-4.52 17.33 17.33 0 0 0 1.14-7.16zm13.72 19.2L279 11.66l13.82 2a14.79 14.79 0 0 1 6.91 2.63 10.81 10.81 0 0 1 3.74 5 13.1 13.1 0 0 1 .56 6.49 13.09 13.09 0 0 1-2.41 6.08 10.73 10.73 0 0 1-5 3.69 15.13 15.13 0 0 1-7.41.52L280 36.74l.8-5.49 8.26 1.2a8.57 8.57 0 0 0 4.19-.27 5.59 5.59 0 0 0 2.7-2 7.59 7.59 0 0 0 1.27-3.36 7.64 7.64 0 0 0-.26-3.57 5.38 5.38 0 0 0-2-2.67 8.73 8.73 0 0 0-4-1.44l-6.12-.89-4.58 31.25zm60.05-14.44a4.94 4.94 0 0 0-.94-4.17 8.28 8.28 0 0 0-4.27-2.72 9.18 9.18 0 0 0-3.65-.46 5.4 5.4 0 0 0-2.72 1 4.25 4.25 0 0 0-1.52 2.14 3.84 3.84 0 0 0-.08 2.09 4.51 4.51 0 0 0 1 1.81 10 10 0 0 0 1.67 1.56c.64.48 1.3.91 2 1.32l3.08 1.86a24.73 24.73 0 0 1 3.43 2.49 14.43 14.43 0 0 1 2.72 3 9.52 9.52 0 0 1 1.45 3.67 9.39 9.39 0 0 1-.38 4.3 10.07 10.07 0 0 1-3.31 5 10.92 10.92 0 0 1-5.76 2.27 19 19 0 0 1-7.7-.93 19.3 19.3 0 0 1-6.8-3.52 11.16 11.16 0 0 1-3.6-5.23 11.62 11.62 0 0 1 0-6.59l6.34 2a5.64 5.64 0 0 0 .19 3.45 6.27 6.27 0 0 0 2.06 2.66 10.75 10.75 0 0 0 3.45 1.74 10.54 10.54 0 0 0 3.89.51 6.23 6.23 0 0 0 3-1 4.46 4.46 0 0 0 1.82-2.41 3.61 3.61 0 0 0-.11-2.56 6.48 6.48 0 0 0-1.75-2.22 23.31 23.31 0 0 0-3-2.14l-3.72-2.3a16.89 16.89 0 0 1-5.88-5.58 8.24 8.24 0 0 1-.64-6.92 9.57 9.57 0 0 1 3.42-5 11.74 11.74 0 0 1 5.78-2.2 17.2 17.2 0 0 1 7.1.76 16.66 16.66 0 0 1 6.24 3.38 11.44 11.44 0 0 1 3.36 5 9.72 9.72 0 0 1 0 5.85zm28.96 42.56L383 45.45l20 13-3.09 4.74-14.34-9.36-5.57 8.51 13 8.47-3.1 4.73-13-8.46-8.65 13.25zm25.06 16.98l24.68-27.91 18.15 16.05-3.75 4.24-13.09-11.58-6.7 7.58 12.15 10.75-3.74 4.25-12.16-10.77-6.73 7.62 13.2 11.67-3.75 4.24zm23.1 21.25l28.42-24.08 4.37 5.15-24.11 20.43L430 128.88l-4.32 3.66zm18.55 22.72l31.47-19.93 3.61 5.7-26.69 16.91 8.78 13.86-4.78 3zm45.18 46.56a21.88 21.88 0 0 1-10.34 2.06 16.09 16.09 0 0 1-8.46-3 18 18 0 0 1-7-16.06 16.14 16.14 0 0 1 3.58-8.23 24.72 24.72 0 0 1 18.87-8.23 16.09 16.09 0 0 1 8.46 3 18 18 0 0 1 7 16.06A16 16 0 0 1 483 178a21.85 21.85 0 0 1-8.52 6.15zm-2.71-6.22a17.23 17.23 0 0 0 6-4.07 9.9 9.9 0 0 0 2.6-5.11 10.35 10.35 0 0 0-4.29-9.84 10 10 0 0 0-5.51-1.57 20 20 0 0 0-13.12 5.72 9.94 9.94 0 0 0-2.6 5.11 10.35 10.35 0 0 0 4.29 9.84 9.91 9.91 0 0 0 5.51 1.57 17.33 17.33 0 0 0 7.12-1.65zm-10.68 26.24l34.38-17.78 1.46 7.11-25.47 12.07.07.34 28.25 1.53 1.33 6.47-25.4 12.53.07.32 28.22 1.08 1.46 7.11-38.61-2.82-1.33-6.53 24.11-12.55-.06-.28-27.11-2.08zM495.27 267a5 5 0 0 0 3.71-2.15 8.36 8.36 0 0 0 1.31-4.89 9.37 9.37 0 0 0-.65-3.62 5.39 5.39 0 0 0-1.74-2.3 4.19 4.19 0 0 0-2.49-.81 3.69 3.69 0 0 0-2 .54 4.6 4.6 0 0 0-1.44 1.47 9.8 9.8 0 0 0-1 2.06 21 21 0 0 0-.67 2.27l-.86 3.5a23.6 23.6 0 0 1-1.32 4.07 14.4 14.4 0 0 1-2.1 3.52 9 9 0 0 1-7.28 3.39 10 10 0 0 1-5.76-1.65 11 11 0 0 1-3.89-4.82 18.76 18.76 0 0 1-1.42-7.63 19.14 19.14 0 0 1 1.33-7.54 11.17 11.17 0 0 1 3.91-5 11.55 11.55 0 0 1 6.29-2v6.64a5.62 5.62 0 0 0-3.24 1.21 6.26 6.26 0 0 0-1.92 2.76 10.69 10.69 0 0 0-.62 3.81 10.16 10.16 0 0 0 .68 3.86 6.09 6.09 0 0 0 1.86 2.61 4.36 4.36 0 0 0 2.79.95 3.57 3.57 0 0 0 2.41-.86 6.4 6.4 0 0 0 1.6-2.34 25 25 0 0 0 1.14-3.51l1.08-4.24a16.79 16.79 0 0 1 3.57-7.28 8.22 8.22 0 0 1 6.4-2.68 9.54 9.54 0 0 1 5.77 1.77 11.83 11.83 0 0 1 3.86 4.87 17 17 0 0 1 1.4 7 16.44 16.44 0 0 1-1.35 7 11.44 11.44 0 0 1-3.79 4.72 9.74 9.74 0 0 1-5.57 1.78zm-27.39 13.21l36.74 6.12-1.11 6.67-15.51-2.61-2.84 17 15.52 2.61-1.11 6.68-36.75-6.12 1.11-6.68 15.61 2.6 2.84-17-15.61-2.6zm26.24 54.87l-35.71-10.63 1.93-6.47L496 328.61zM456.24 332l34.29 14.57-5.47 12.86a14.79 14.79 0 0 1-4.29 6 10.68 10.68 0 0 1-5.77 2.35 14.2 14.2 0 0 1-11.69-5A10.73 10.73 0 0 1 461 357a15.16 15.16 0 0 1 1.38-7.3l3.62-8.52 5.1 2.17-3.26 7.68a8.6 8.6 0 0 0-.81 4.13 5.54 5.54 0 0 0 1.29 3.12 8.24 8.24 0 0 0 6.44 2.74 5.4 5.4 0 0 0 3.1-1.27 8.91 8.91 0 0 0 2.4-3.48l2.42-5.69-29.1-12.37z" fill="#e1e5e2"/></svg>
