<svg xmlns="http://www.w3.org/2000/svg" xmlns:xlink="http://www.w3.org/1999/xlink" width="191" height="43" fill="none"><g clip-path="url(#A)"><use xlink:href="#B" fill="#fff"/><use xlink:href="#B" fill="#ef4444"/><path d="M189.108 17.908c-.593-1.834-1.569-3.525-2.866-4.963-1.3-1.423-2.883-2.568-4.65-3.362-1.897-.832-3.953-1.251-6.029-1.227-1.18-.005-2.358.111-3.514.347l.189-1.975a5.62 5.62 0 0 0-1.029-3.604 5.75 5.75 0 0 0-3.08-2.187 17.58 17.58 0 0 0-2.622-.534c-.871-.098-1.747-.142-2.623-.133-1.731-.012-3.452.277-5.082.854-1.654.583-3.172 1.491-4.461 2.668-1.322 1.248-2.347 2.77-3.001 4.456l-.324.907a5.92 5.92 0 0 0-1.406.747c-2.081-1.014-4.514-1.548-7.299-1.548a27 27 0 0 0-8.354 1.388l-.135.053-.162-.053a23.99 23.99 0 0 0-3.839-1.041 22.21 22.21 0 0 0-3.974-.347c-3.704 0-6.812.961-9.219 2.829-.219.163-.427.342-.621.534l-.027-.027c-2.271-2.028-5.434-3.069-9.354-3.069a26.15 26.15 0 0 0-3.812.267c-1.115.152-2.217.384-3.298.694a5.6 5.6 0 0 0-2.73 1.815c-1.676-1.468-4.244-2.775-8.11-2.775a13.11 13.11 0 0 0-4.19.667l-.514.187c-.45-.181-.923-.298-1.406-.347l-.865-.08c-.639-.053-1.281-.053-1.919 0l-.919.08c-.809.096-1.587.362-2.282.781a5.65 5.65 0 0 0-1.746 1.647 13.35 13.35 0 0 0-2.568-1.574c-1.98-.879-4.127-1.334-6.299-1.334s-4.319.455-6.299 1.334l-.703.347c-.8-.621-1.751-1.026-2.758-1.174a10.13 10.13 0 0 0-1.271-.08h-.405c-1.251 0-2.496.162-3.704.48-.48-.211-.991-.346-1.514-.4l-.865-.08c-.639-.053-1.281-.053-1.919 0l-.919.08a5.79 5.79 0 0 0-2.275.775c-.694.414-1.292.968-1.753 1.627a13.35 13.35 0 0 0-2.568-1.574c-1.971-.907-4.124-1.364-6.299-1.334-2.698-.064-5.357.65-7.651 2.055a5.38 5.38 0 0 0-1.865-1.067 19.88 19.88 0 0 0-3.082-.72c-1.217-.183-2.446-.272-3.677-.267-2.21-.028-4.401.399-6.434 1.254a14.23 14.23 0 0 0-5.001 3.602 14.84 14.84 0 0 0-2.893 5.123c-.618 1.859-.92 3.807-.892 5.764 0 4.75 1.379 8.593 4.055 11.395 2.785 2.882 6.623 4.35 11.436 4.35a22.41 22.41 0 0 0 3.785-.32c1.039-.185 2.06-.453 3.055-.8a6.2 6.2 0 0 0 1.595-.881 11.48 11.48 0 0 0 1.271.667c1.971.907 4.124 1.363 6.299 1.334a14.68 14.68 0 0 0 6.299-1.334c.906-.426 1.759-.954 2.541-1.574.433.63.992 1.166 1.643 1.574a5.69 5.69 0 0 0 2.142.801 11.12 11.12 0 0 0 1.325.133 11.68 11.68 0 0 0 .865.027c.216 0 .514 0 .919-.027a10.67 10.67 0 0 0 1.298-.133 5.79 5.79 0 0 0 3.249-1.712 5.66 5.66 0 0 0 1.536-3.304c.118.166.244.327.378.48a12.95 12.95 0 0 0 4.758 3.736c1.983.871 4.129 1.321 6.299 1.321s4.316-.45 6.299-1.321a14.06 14.06 0 0 0 2.568-1.574c.433.63.992 1.166 1.643 1.574a5.69 5.69 0 0 0 2.141.801 11.12 11.12 0 0 0 1.325.133l.865.027c.189 0 .514 0 .919-.027a10.67 10.67 0 0 0 1.298-.133c.934-.157 1.815-.538 2.565-1.111a5.71 5.71 0 0 0 1.734-2.171 5.71 5.71 0 0 0 1.734 2.171c.75.572 1.63.954 2.565 1.111a11.12 11.12 0 0 0 1.325.133 11.68 11.68 0 0 0 .865.027c.216 0 .514 0 .919-.027a10.67 10.67 0 0 0 1.298-.133c1.091-.183 2.105-.674 2.92-1.414 2.217 1.281 4.92 1.921 8.11 1.921a30.68 30.68 0 0 0 4.434-.32c1.406-.187 2.568-.374 3.568-.587.382-.075.753-.191 1.109-.347.481.178.968.338 1.46.48.622.16 1.243.32 1.865.427a18.95 18.95 0 0 0 2.109.267c.649.053 1.351.08 2.108.08 1.824.027 3.64-.235 5.38-.774 1.451-.449 2.82-1.125 4.055-2.001.136.107.298.213.433.32a13.41 13.41 0 0 0 4.866 2.001 21.95 21.95 0 0 0 4.758.454 28.37 28.37 0 0 0 5.434-.48c1.296-.243 2.577-.555 3.839-.934a1.14 1.14 0 0 0 .27-.107c.726.51 1.557.856 2.433 1.014a24.05 24.05 0 0 0 3.65.294c1.213-.004 2.425-.102 3.623-.294a5.77 5.77 0 0 0 2.397-.983c.712-.504 1.298-1.163 1.712-1.926a14.67 14.67 0 0 0 4.028 2.295c2.18.794 4.489 1.183 6.813 1.147 2.998.031 5.977-.485 8.786-1.521 1.112-.423 2.063-1.176 2.722-2.157a5.62 5.62 0 0 0 .954-3.314c-.034-1.172-.206-2.336-.513-3.469.706-.784 1.183-1.744 1.378-2.775.109-.56.163-1.094.217-1.654a21.61 21.61 0 0 0 .081-1.868c-.02-1.859-.33-3.704-.919-5.47z" fill="#fff"/><path d="M176.376 40.351a19.58 19.58 0 0 1-6.894-1.148 15.23 15.23 0 0 1-3.866-2.161c-.438.736-1.037 1.367-1.752 1.847s-1.53.797-2.384.929c-2.434.4-4.919.4-7.353 0a5.92 5.92 0 0 1-2.406-.961l-.163.053-3.866.961c-1.808.342-3.646.512-5.488.507a24.32 24.32 0 0 1-4.812-.48c-1.773-.347-3.456-1.046-4.947-2.055l-.297-.213c-1.224.833-2.562 1.489-3.974 1.948a18.04 18.04 0 0 1-5.461.801c-.757 0-1.487-.027-2.136-.08a19.49 19.49 0 0 1-2.136-.267l-1.892-.427-1.406-.454a7.95 7.95 0 0 1-1.054.32l-3.596.587c-1.477.213-2.968.32-4.46.32-3.136 0-5.84-.64-8.084-1.868-.835.7-1.842 1.169-2.92 1.361l-1.325.134-.919.027c-.216 0-.487 0-.865-.027a11.6 11.6 0 0 1-1.352-.134c-.895-.145-1.745-.489-2.485-1.007a5.92 5.92 0 0 1-1.786-1.981 5.92 5.92 0 0 1-1.786 1.981 6.01 6.01 0 0 1-2.485 1.007 10.6 10.6 0 0 1-1.325.134c-.297.027-.622.027-.919.027-.216 0-.487 0-.892-.027a11.6 11.6 0 0 1-1.352-.134 5.94 5.94 0 0 1-3.812-2.295 13.62 13.62 0 0 1-2.406 1.441c-2.009.897-4.189 1.361-6.394 1.361s-4.385-.464-6.394-1.361c-1.884-.883-3.54-2.179-4.839-3.789l-.027-.053a5.85 5.85 0 0 1-1.71 3.078c-.875.83-1.985 1.376-3.184 1.565l-1.325.133-.919.027c-.216 0-.487 0-.865-.027-.453-.018-.904-.063-1.352-.133-1.518-.245-2.883-1.057-3.812-2.268a13.62 13.62 0 0 1-2.406 1.441c-2.009.897-4.189 1.361-6.394 1.361s-4.385-.464-6.394-1.361c-.39-.184-.769-.389-1.136-.614-.465.35-.986.62-1.541.8a24.18 24.18 0 0 1-3.109.827 20.43 20.43 0 0 1-3.812.32c-4.866 0-8.786-1.494-11.598-4.43C1.383 33.066.004 29.197.004 24.367c-.016-1.973.285-3.937.892-5.817a14.89 14.89 0 0 1 2.947-5.203c1.393-1.588 3.13-2.847 5.082-3.683 2.056-.876 4.276-1.313 6.515-1.281 1.249.005 2.497.103 3.731.294 1.054.158 2.094.399 3.109.72a5.97 5.97 0 0 1 1.811.987 10.91 10.91 0 0 1 1.244-.64c2.009-.897 4.189-1.361 6.394-1.361s4.385.464 6.394 1.361a14.68 14.68 0 0 1 2.406 1.441c.482-.631 1.087-1.161 1.778-1.56a6.1 6.1 0 0 1 2.25-.762c.324-.053.622-.053.919-.08a11.85 11.85 0 0 1 1.946 0l.892.08c.519.058 1.028.184 1.514.374a14.18 14.18 0 0 1 3.677-.48h.406a7.39 7.39 0 0 1 1.325.107 6.1 6.1 0 0 1 2.758 1.121c.189-.107.378-.187.568-.294 2.009-.897 4.189-1.361 6.394-1.361s4.385.464 6.394 1.361a14.68 14.68 0 0 1 2.406 1.441c.482-.631 1.087-1.161 1.778-1.56a6.1 6.1 0 0 1 2.25-.762c.324-.053.622-.053.919-.08.648-.053 1.299-.053 1.947 0l.892.08a5.23 5.23 0 0 1 1.379.347l.46-.16c1.369-.446 2.803-.672 4.244-.667 3.271 0 5.975.907 8.083 2.695a5.99 5.99 0 0 1 2.703-1.708 24.2 24.2 0 0 1 3.352-.72c1.271-.183 2.554-.272 3.839-.267 3.92 0 7.083 1.014 9.381 3.015a5.69 5.69 0 0 1 .459-.374c2.461-1.921 5.624-2.882 9.381-2.882a25.4 25.4 0 0 1 4.029.347c1.324.239 2.626.588 3.892 1.041l.082.027.054-.027a26.54 26.54 0 0 1 4.352-1.067c4.488-.694 8.246-.294 11.355 1.174.375-.265.784-.481 1.216-.64l.27-.801c.656-1.722 1.701-3.273 3.055-4.536 1.304-1.218 2.851-2.155 4.542-2.749 1.664-.592 3.422-.881 5.191-.854a22.02 22.02 0 0 1 2.649.133c.899.107 1.785.294 2.649.56 1.311.362 2.455 1.161 3.238 2.26a5.78 5.78 0 0 1 1.061 3.771c-.027.587-.081 1.121-.135 1.654a19.04 19.04 0 0 1 3.244-.294 15.19 15.19 0 0 1 6.137 1.228c1.804.794 3.417 1.958 4.731 3.416a14.14 14.14 0 0 1 2.919 5.044c.583 1.784.875 3.649.865 5.524a22.17 22.17 0 0 1-.081 1.895 21.81 21.81 0 0 1-.216 1.681 5.8 5.8 0 0 1-1.352 2.802c.296 1.107.46 2.244.487 3.389a5.87 5.87 0 0 1-.999 3.458c-.688 1.023-1.68 1.81-2.84 2.252a23.76 23.76 0 0 1-8.84 1.574zm-10.895-4.029l.216.187c1.189.953 2.521 1.718 3.947 2.268 2.145.783 4.419 1.163 6.705 1.121 2.969.027 5.919-.48 8.705-1.494 1.064-.402 1.975-1.123 2.605-2.06a5.35 5.35 0 0 0 .909-3.17 14.73 14.73 0 0 0-.513-3.416l-.027-.134.081-.107c.677-.755 1.135-1.677 1.324-2.669.098-.534.171-1.083.217-1.628a21.61 21.61 0 0 0 .081-1.868c.003-1.829-.279-3.647-.838-5.39a13.37 13.37 0 0 0-2.821-4.863c-1.276-1.407-2.839-2.532-4.587-3.302-1.87-.824-3.9-1.233-5.947-1.201-1.164.004-2.324.129-3.461.374l-.324.08.054-.347c.081-.64.135-1.281.189-1.948a5.39 5.39 0 0 0-.99-3.456 5.51 5.51 0 0 0-2.957-2.094c-.84-.244-1.699-.423-2.568-.534a21.13 21.13 0 0 0-2.595-.133c-1.703-.008-3.394.272-5.002.827-1.63.57-3.121 1.47-4.379 2.642a12.1 12.1 0 0 0-2.947 4.376c-.108.294-.216.587-.297.881l-.027.107-.108.053c-.481.181-.935.423-1.352.72l-.108.08-.136-.053c-3.027-1.468-6.758-1.895-11.192-1.174a28.47 28.47 0 0 0-4.271 1.041l-.216.08-.244-.107c-1.239-.444-2.514-.783-3.812-1.014a21.7 21.7 0 0 0-3.947-.347c-3.649 0-6.704.934-9.083 2.775-.216.16-.406.347-.595.507l-.162.133-.162-.133c-2.271-2.028-5.353-3.042-9.219-3.042-1.267-.004-2.532.085-3.785.267-1.106.152-2.199.384-3.271.694-1.028.31-1.941.914-2.622 1.735l-.162.187-.189-.16c-2.055-1.815-4.731-2.722-7.948-2.722-1.395-.002-2.782.214-4.109.64a3.97 3.97 0 0 0-.514.187l-.081.027-.081-.027a5.92 5.92 0 0 0-1.352-.347l-.865-.08c-.63-.053-1.263-.053-1.892 0l-.892.08c-.771.092-1.513.347-2.176.748s-1.23.937-1.663 1.574l-.135.213-.189-.16a13.5 13.5 0 0 0-2.514-1.548c-1.948-.858-4.058-1.301-6.191-1.301a15.37 15.37 0 0 0-6.191 1.301c-.243.107-.46.24-.703.347l-.135.08-.135-.107c-.768-.597-1.682-.984-2.649-1.121-.412-.053-.828-.08-1.243-.08h-.379c-1.223-.01-2.441.142-3.623.454l-.081.027-.081-.027a5.33 5.33 0 0 0-1.46-.374l-.865-.08c-.63-.053-1.263-.053-1.892 0l-.892.08c-.771.092-1.513.347-2.176.748s-1.23.937-1.663 1.574l-.135.213-.189-.16c-.778-.606-1.621-1.125-2.514-1.548a15.37 15.37 0 0 0-12.382 0 12.7 12.7 0 0 0-1.325.721l-.162.08-.135-.107c-.519-.453-1.126-.798-1.784-1.014a19.95 19.95 0 0 0-3.028-.721c-1.199-.182-2.41-.271-3.623-.267a16.09 16.09 0 0 0-6.326 1.228 13.78 13.78 0 0 0-4.92 3.549c-1.351 1.423-2.358 3.129-2.947 4.99-.592 1.838-.893 3.755-.892 5.684 0 4.697 1.352 8.459 4.001 11.234 2.73 2.829 6.515 4.269 11.246 4.269 1.251 0 2.499-.107 3.731-.32a19.43 19.43 0 0 0 3.028-.8c.551-.201 1.07-.48 1.541-.827l.135-.107.135.08a18.34 18.34 0 0 0 1.244.667 15.37 15.37 0 0 0 12.382 0 13.51 13.51 0 0 0 2.514-1.548l.189-.16.135.214c.415.605.95 1.12 1.573 1.514a5.51 5.51 0 0 0 2.05.781c.433.053.865.107 1.298.133.379.027.676.027.865.027s.514 0 .892-.027c.417-.017.833-.061 1.244-.133a5.5 5.5 0 0 0 3.111-1.636 5.38 5.38 0 0 0 1.458-3.167l.054-.614.378.507.379.48c1.258 1.552 2.858 2.802 4.677 3.656a15.37 15.37 0 0 0 12.382 0c.893-.423 1.736-.942 2.514-1.548l.189-.16.135.213c.418.608.957 1.125 1.585 1.52a5.5 5.5 0 0 0 2.065.775 21.28 21.28 0 0 0 1.298.133 11.68 11.68 0 0 0 .865.027c.189 0 .514 0 .892-.027a9.33 9.33 0 0 0 1.243-.133c.9-.146 1.748-.51 2.471-1.059s1.294-1.267 1.666-2.089l.216-.48.216.48a5.46 5.46 0 0 0 1.667 2.088c.722.549 1.57.914 2.469 1.061a21.28 21.28 0 0 0 1.298.133c.287.019.576.029.865.027.189 0 .514 0 .892-.027a9.33 9.33 0 0 0 1.244-.133c1.054-.165 2.034-.639 2.812-1.361l.135-.107.162.08c2.19 1.254 4.867 1.895 7.975 1.895 1.475 0 2.948-.107 4.407-.32 1.379-.187 2.568-.374 3.569-.587a6.89 6.89 0 0 0 1.054-.32l.081-.027.081.027c.568.213 1.054.347 1.46.48.622.16 1.217.32 1.865.427.688.13 1.383.219 2.082.267a25.86 25.86 0 0 0 2.109.08 16.86 16.86 0 0 0 5.298-.774c1.429-.451 2.778-1.117 4.001-1.975l.136-.107.135.107.432.32c1.447.965 3.073 1.636 4.785 1.975a23.23 23.23 0 0 0 4.704.454 28.29 28.29 0 0 0 5.407-.48 39.61 39.61 0 0 0 3.812-.934l.216-.08.19-.053.108.08c.69.492 1.485.821 2.325.961a21.68 21.68 0 0 0 7.191 0c.828-.136 1.614-.457 2.298-.937s1.248-1.109 1.649-1.838l.108-.32z" fill="#b21936"/><path d="M20.008 31.571c.157.323.275.664.352 1.014l.243 1.067c-.714.242-1.446.43-2.19.56a15.2 15.2 0 0 1-2.703.24c-3.19 0-5.623-.854-7.272-2.588s-2.487-4.216-2.514-7.498a12.36 12.36 0 0 1 .622-3.976 9.21 9.21 0 0 1 1.811-3.202c.813-.927 1.83-1.657 2.974-2.135a10.32 10.32 0 0 1 4.109-.774 16.32 16.32 0 0 1 2.785.213 13.83 13.83 0 0 1 2.082.48 5.06 5.06 0 0 1-.135 1.121c-.058.349-.158.689-.297 1.014-.626-.204-1.268-.356-1.919-.454-.832-.128-1.672-.191-2.514-.187-1.031-.02-2.055.181-3.001.587a5.61 5.61 0 0 0-2.136 1.654 6.79 6.79 0 0 0-1.271 2.482c-.291 1.034-.437 2.102-.433 3.175 0 2.722.649 4.723 1.974 5.977s3.082 1.895 5.326 1.895a12.14 12.14 0 0 0 2.19-.187 11.2 11.2 0 0 0 1.919-.48zm11.706 2.882a8.86 8.86 0 0 1-3.812-.774 7.57 7.57 0 0 1-2.73-2.135c-.752-.95-1.303-2.039-1.622-3.202-.703-2.596-.703-5.329 0-7.925.319-1.163.87-2.252 1.622-3.202.73-.911 1.665-1.642 2.73-2.135 1.197-.534 2.499-.798 3.812-.774 1.313-.024 2.615.24 3.812.774 1.052.503 1.976 1.232 2.703 2.135.75.955 1.309 2.042 1.649 3.202.73 2.593.73 5.333 0 7.925a9.06 9.06 0 0 1-1.649 3.202c-.727.903-1.651 1.632-2.703 2.135a9.02 9.02 0 0 1-3.812.774zm0-2.188c2.028 0 3.569-.694 4.569-2.108s1.514-3.336 1.514-5.764-.514-4.376-1.514-5.791-2.541-2.108-4.569-2.108-3.569.694-4.569 2.108-1.514 3.336-1.514 5.791.514 4.35 1.514 5.764 2.514 2.108 4.569 2.108zm13.571-17.532c.197-.03.396-.048.595-.053l.541-.027.568.027.568.053c.054.454.081.987.108 1.601l.027 1.681a6.87 6.87 0 0 1 2.136-2.348c.919-.641 2.136-.961 3.623-.961h.406c.162 0 .324.027.487.027a6.01 6.01 0 0 1 .108 1.201 5.75 5.75 0 0 1-.108 1.174c-.162-.027-.324-.027-.487-.053h-.325c-1.73 0-3.109.534-4.163 1.628s-1.568 2.882-1.568 5.39v9.9c-.206.03-.414.048-.622.053l-.622.027c-.208.001-.415-.008-.622-.027-.217-.005-.434-.022-.649-.053v-19.24zm19.654 19.72a8.86 8.86 0 0 1-3.812-.774c-1.07-.486-2.006-1.218-2.73-2.135-.751-.95-1.303-2.039-1.622-3.202-.703-2.596-.703-5.329 0-7.925.319-1.163.87-2.252 1.622-3.202.73-.911 1.665-1.642 2.73-2.135a9.77 9.77 0 0 1 7.624 0c1.052.503 1.976 1.232 2.704 2.135.749.955 1.309 2.042 1.649 3.202.73 2.593.73 5.333 0 7.925a9.06 9.06 0 0 1-1.649 3.202c-.728.903-1.651 1.632-2.704 2.135-1.197.534-2.499.799-3.812.774zm0-2.188c2.028 0 3.569-.694 4.569-2.108s1.514-3.336 1.514-5.764-.514-4.376-1.514-5.791-2.541-2.108-4.569-2.108-3.569.694-4.569 2.108-1.514 3.336-1.514 5.791.514 4.35 1.514 5.764 2.541 2.108 4.569 2.108zM78.51 14.733c.197-.03.396-.048.595-.053l.541-.027.568.027.568.053c.054.454.081 1.014.108 1.708l.027 1.788a8.22 8.22 0 0 1 1-1.388 7.07 7.07 0 0 1 1.433-1.254 7.34 7.34 0 0 1 1.892-.934c.749-.247 1.535-.364 2.325-.347 2.244 0 3.866.667 4.893 1.975s1.541 3.175 1.541 5.577v12.168a3.82 3.82 0 0 1-.622.053l-.622.027a6.03 6.03 0 0 1-.622-.027c-.217-.005-.434-.022-.649-.053V22.605c0-2.135-.324-3.683-1.027-4.617s-1.676-1.388-3.028-1.388a6.25 6.25 0 0 0-2.514.534c-.787.356-1.488.875-2.055 1.521a7.66 7.66 0 0 0-1.352 2.482 10.14 10.14 0 0 0-.487 3.362v9.526c-.206.03-.414.048-.622.053l-.622.027a6.03 6.03 0 0 1-.622-.027 5.3 5.3 0 0 1-.649-.053V14.733zm31.847 6.538c0-1.654-.406-2.882-1.19-3.656s-1.973-1.148-3.514-1.148c-1.703-.006-3.398.237-5.029.721-.16-.31-.27-.643-.324-.987-.085-.395-.13-.797-.135-1.201a15.15 15.15 0 0 1 2.433-.507c.985-.138 1.978-.21 2.973-.213 2.461 0 4.299.534 5.515 1.601 1.19 1.067 1.812 2.749 1.785 5.044v12.729l-3.244.534c-1.201.168-2.411.258-3.623.267-2.379 0-4.244-.454-5.596-1.388s-2.055-2.455-2.055-4.536c-.022-.932.182-1.857.595-2.695a5.64 5.64 0 0 1 1.649-2.001c.753-.561 1.606-.977 2.514-1.227 1.057-.289 2.148-.433 3.244-.427a20.69 20.69 0 0 1 2.379.107l1.65.16-.027-1.174zm0 3.362l-1.623-.16-1.865-.107c-1.919 0-3.379.347-4.434 1.067a3.45 3.45 0 0 0-1.187 1.303 3.4 3.4 0 0 0-.381 1.712 3.73 3.73 0 0 0 .487 2.001 3.2 3.2 0 0 0 1.244 1.147 5.36 5.36 0 0 0 1.676.534 13.85 13.85 0 0 0 1.838.133 20.54 20.54 0 0 0 2.217-.107l2.028-.293v-7.232zm11.246.854c-1.433-.4-2.541-.987-3.352-1.788s-1.217-1.975-1.217-3.549c0-1.921.703-3.416 2.082-4.483s3.271-1.628 5.677-1.628a15.53 15.53 0 0 1 2.947.267c1.002.189 1.987.456 2.946.801a10.36 10.36 0 0 1-.378 2.028c-.186.634-.43 1.251-.73 1.841a16.36 16.36 0 0 0-2.028-.667 9.73 9.73 0 0 0-2.325-.294c-.698-.03-1.394.107-2.027.4a1.34 1.34 0 0 0-.552.521 1.32 1.32 0 0 0-.178.733c0 .56.162.934.514 1.174.454.278.945.494 1.459.641l2.19.64c.666.177 1.31.427 1.92.747.545.27 1.039.631 1.459 1.067.431.448.755.986.947 1.574a6.68 6.68 0 0 1 .351 2.295c.007.911-.199 1.811-.602 2.63s-.993 1.535-1.723 2.093a8.78 8.78 0 0 1-2.73 1.388 11.89 11.89 0 0 1-3.623.507c-.622 0-1.162-.027-1.676-.053-.49-.036-.977-.098-1.46-.187-.474-.081-.943-.188-1.406-.32l-1.487-.48a10.53 10.53 0 0 1 .352-2.055c.187-.698.44-1.377.757-2.028.775.301 1.57.551 2.379.747a11.74 11.74 0 0 0 2.352.24c.39.004.78-.032 1.162-.107.405-.05.798-.167 1.163-.347a2.43 2.43 0 0 0 .892-.667 1.48 1.48 0 0 0 .351-1.041c0-.614-.189-1.041-.54-1.308a4.99 4.99 0 0 0-1.541-.694l-2.325-.64zm22.871-4.323c.024-.506-.078-1.01-.298-1.468a2.2 2.2 0 0 0-.838-.881c-.406-.233-.857-.378-1.324-.427-.574-.075-1.152-.111-1.731-.107a13.95 13.95 0 0 0-4.406.8c-.325-.589-.596-1.205-.811-1.841-.185-.679-.276-1.379-.27-2.081a21.33 21.33 0 0 1 6.488-1.094c2.649 0 4.731.64 6.218 1.895s2.243 3.282 2.243 6.031v11.314a32.11 32.11 0 0 1-3.244.8c-1.425.271-2.874.396-4.325.374-1.198.005-2.394-.111-3.569-.347a7.92 7.92 0 0 1-2.784-1.121c-.759-.516-1.373-1.214-1.784-2.028a7 7 0 0 1-.622-3.069c-.027-1.066.245-2.118.784-3.042a6.47 6.47 0 0 1 2.027-1.975 8.6 8.6 0 0 1 2.785-1.067 14.68 14.68 0 0 1 3.055-.32l2.46.107v-.454h-.054zm0 3.896l-1-.133-.947-.053c-1.243 0-2.244.213-2.973.667s-1.082 1.147-1.082 2.135a2.53 2.53 0 0 0 .406 1.521c.266.344.621.611 1.027.774a4.19 4.19 0 0 0 1.271.294l1.162.053a5.46 5.46 0 0 0 1.136-.107l1-.16v-4.99zm10.624-6.511h-3.136c-.081-.374-.108-.721-.162-1.094l-.027-1.014.027-.934a6.21 6.21 0 0 1 .162-1.014h3.136v-.934c-.023-1.1.161-2.195.541-3.229a6.46 6.46 0 0 1 1.595-2.375c.711-.649 1.548-1.148 2.46-1.468 1.015-.354 2.087-.526 3.163-.507.651-.004 1.301.031 1.947.107a12.85 12.85 0 0 1 1.703.347l-.244 2.242c-.113.674-.294 1.336-.54 1.975l-.865-.16a4.68 4.68 0 0 0-1.217-.08c-.777-.027-1.543.188-2.19.614-.567.427-.865 1.308-.919 2.669v.827h4.596c.081.374.108.72.162 1.094l.054 1.014-.054.934c-.025.342-.08.681-.162 1.014h-4.596v15.45a15.08 15.08 0 0 1-2.676.214 18.16 18.16 0 0 1-2.704-.214l-.054-15.477zm16.248 7.338c.108 1.521.622 2.615 1.595 3.282s2.244 1.014 3.812 1.014c.888 0 1.775-.08 2.649-.24a15.73 15.73 0 0 0 2.568-.694c.299.582.543 1.189.73 1.814a9.27 9.27 0 0 1 .352 2.268 18.68 18.68 0 0 1-6.732 1.121c-1.609.032-3.212-.221-4.731-.747-1.201-.431-2.284-1.133-3.162-2.05s-1.526-2.025-1.893-3.233a13.74 13.74 0 0 1 .027-8.085 9.56 9.56 0 0 1 1.811-3.282c.824-.935 1.837-1.689 2.974-2.215 1.305-.556 2.715-.829 4.136-.8 1.27-.023 2.531.213 3.704.694 1.043.457 1.975 1.13 2.73 1.975a8.33 8.33 0 0 1 1.703 2.962c.391 1.189.582 2.433.568 3.683l-.054 1.414-.135 1.121h-12.652zm7.759-3.736c-.054-1.201-.379-2.188-1.028-2.935s-1.486-1.121-2.622-1.121c-1.271 0-2.244.347-2.92 1.067s-1.054 1.708-1.189 2.989h7.759z" fill="#000"/></g><defs><clipPath id="A"><path fill="#fff" d="M0 0h191v43H0z"/></clipPath><path id="B" d="M190.108 20.924c-.568-1.844-1.516-3.552-2.785-5.017a13.74 13.74 0 0 0-4.596-3.416c-1.885-.851-3.929-1.305-6.001-1.334-1.188-.023-2.375.076-3.542.294l.217-1.975c.105-1.282-.238-2.56-.97-3.623s-1.812-1.847-3.059-2.221c-.848-.262-1.716-.458-2.595-.587-.865-.107-1.73-.16-2.622-.187-1.734-.046-3.463.207-5.11.747-1.672.552-3.21 1.443-4.514 2.615-1.351 1.22-2.404 2.725-3.082 4.403l-.325.881a6.28 6.28 0 0 0-1.405.72c-2.082-1.067-4.488-1.628-7.273-1.681a27.03 27.03 0 0 0-8.38 1.254c-.054.027-.108.027-.135.053a.39.39 0 0 0-.163-.053 23.84 23.84 0 0 0-3.812-1.094 19.67 19.67 0 0 0-3.974-.4c-3.703-.053-6.812.827-9.272 2.669a5.72 5.72 0 0 0-.622.507l-.027-.027c-2.244-2.081-5.38-3.149-9.3-3.229a26.08 26.08 0 0 0-3.812.213 19.81 19.81 0 0 0-3.325.667c-1.078.317-2.043.927-2.784 1.761-1.649-1.494-4.19-2.855-8.056-2.935a13.15 13.15 0 0 0-4.19.587l-.541.187c-.44-.186-.904-.312-1.379-.374-.297-.053-.595-.08-.865-.107-.639-.049-1.28-.058-1.919-.027l-.919.08c-.806.086-1.584.34-2.283.745s-1.303.951-1.772 1.603c-.781-.637-1.634-1.183-2.541-1.628-1.961-.911-4.095-1.401-6.262-1.437s-4.317.38-6.309 1.224a5.69 5.69 0 0 0-.703.347 5.77 5.77 0 0 0-2.73-1.228 6.81 6.81 0 0 0-1.271-.107h-.406a13.39 13.39 0 0 0-3.704.427 6.1 6.1 0 0 0-1.514-.427c-.297-.053-.595-.08-.865-.107a11.53 11.53 0 0 0-1.919-.027l-.919.08c-.807.081-1.587.332-2.287.737s-1.303.955-1.768 1.611c-.781-.637-1.634-1.183-2.541-1.628-1.966-.911-4.105-1.401-6.276-1.438a15.56 15.56 0 0 0-6.322 1.224l-1.379.72a5.59 5.59 0 0 0-1.838-1.094 17.67 17.67 0 0 0-3.055-.774c-1.215-.209-2.444-.325-3.677-.347-2.202-.064-4.394.326-6.434 1.147a14.47 14.47 0 0 0-5.055 3.522 14.81 14.81 0 0 0-2.974 5.07c-.651 1.846-.998 3.783-1.027 5.737-.081 4.75 1.217 8.619 3.866 11.448 2.73 2.935 6.542 4.456 11.354 4.536 2.331.048 4.653-.294 6.867-1.014.588-.188 1.137-.477 1.622-.854.406.24.811.48 1.244.694 1.966.911 4.104 1.401 6.276 1.438s4.326-.38 6.322-1.224c.919-.422 1.789-.941 2.595-1.548.43.635.984 1.179 1.629 1.6s1.369.712 2.129.855a11.21 11.21 0 0 0 1.325.16l.865.027h.919c.434-.009.868-.045 1.298-.107 1.248-.18 2.401-.762 3.281-1.654s1.437-2.046 1.585-3.283c.108.16.243.32.351.507a13.56 13.56 0 0 0 4.704 3.816c1.966.911 4.105 1.401 6.276 1.438a15.56 15.56 0 0 0 6.322-1.224 14.41 14.41 0 0 0 2.568-1.521c.425.634.973 1.178 1.614 1.6s1.36.712 2.117.855a11.25 11.25 0 0 0 1.325.16c.297.027.568.027.865.027h.919c.434-.009.868-.045 1.298-.107.94-.13 1.831-.491 2.592-1.051s1.366-1.3 1.761-2.151c.371.863.952 1.622 1.693 2.209s1.617.983 2.551 1.153a11.21 11.21 0 0 0 1.325.16c.287.019.576.029.865.027h.919c.434-.009.868-.045 1.298-.107a5.5 5.5 0 0 0 2.947-1.388c2.19 1.307 4.893 2.028 8.083 2.081 1.482.027 2.964-.053 4.434-.24a51.51 51.51 0 0 0 3.595-.534c.377-.078.748-.185 1.109-.32l1.459.507c.622.187 1.244.32 1.866.454.697.137 1.401.235 2.108.294a25.26 25.26 0 0 0 2.109.107 17.6 17.6 0 0 0 5.407-.694c1.456-.421 2.834-1.07 4.082-1.921a5.99 5.99 0 0 0 .433.32c1.447 1.005 3.083 1.712 4.812 2.081 1.563.337 3.158.516 4.758.534a26.76 26.76 0 0 0 5.461-.4c1.306-.214 2.597-.508 3.866-.881.081-.027.189-.053.27-.08a5.72 5.72 0 0 0 2.406 1.041c2.4.444 4.858.489 7.272.133.866-.129 1.691-.451 2.412-.941a5.74 5.74 0 0 0 1.752-1.888c1.194.987 2.534 1.787 3.974 2.375 2.164.829 4.464 1.254 6.785 1.254a24.75 24.75 0 0 0 8.813-1.361 5.74 5.74 0 0 0 2.762-2.101 5.62 5.62 0 0 0 1.023-3.29 15.1 15.1 0 0 0-.459-3.469c.727-.777 1.222-1.738 1.432-2.775.082-.454.163-1.014.244-1.655s.108-1.254.108-1.868a23.58 23.58 0 0 0-.892-5.55z"/></defs></svg>
