<svg xmlns="http://www.w3.org/2000/svg" viewBox="0 0 775 203.33" fill="#677b8c"><path d="M118.28 68.72v8.9a.92.92 0 0 1-1 1H79v18.2h31.6a.91.91 0 0 1 1 1v8.92a.91.91 0 0 1-1 1H79v27a.91.91 0 0 1-1 1h-9.53a.91.91 0 0 1-1-1V68.72a.92.92 0 0 1 1-1h48.84a.92.92 0 0 1 .97 1zm78.12 66.86h-10.57a1.05 1.05 0 0 1-1.11-.87c-1.4-5.57-3.1-11.43-5-17.34h-32.46c-1.93 5.9-3.63 11.77-5 17.34a1 1 0 0 1-1.11.87H131c-.67 0-1.06-.38-.87-1.06A451.81 451.81 0 0 1 154.91 69a1.86 1.86 0 0 1 1.89-1.26h13.76a1.86 1.86 0 0 1 1.89 1.26 442.83 442.83 0 0 1 24.81 65.51c.2.7-.2 1.07-.87 1.07zm-20.3-28.68c-3.53-9.8-7.46-19.58-11.48-28.5h-2.28c-4 8.9-8 18.7-11.53 28.5zm37.63-4.65c0-21 13.86-35.76 33.63-35.76h1.45c12.4 0 22 6.3 27.1 15.4a.85.85 0 0 1-.34 1.35L267 87.47a1.17 1.17 0 0 1-1.69-.44c-3.6-6.2-9-9.5-16.9-9.5H247c-12.45 0-21 9.88-21 24.22s8.43 24 21 24h1.46c8.14 0 12.88-2.77 16.52-7a1.24 1.24 0 0 1 1.6-.34l8.77 4.26a.81.81 0 0 1 .48.68 1.31 1.31 0 0 1-.29.73c-5.38 7.85-15.07 12.7-26.9 12.7h-1.45c-20.14.06-33.47-13.78-33.47-34.53zm139.35 23.45v8.92a.9.9 0 0 1-1 1h-50.84a.91.91 0 0 1-1-1v-65.9a.92.92 0 0 1 1-1h50a.92.92 0 0 1 1 1v8.9a.92.92 0 0 1-1 1H311.8v17.6h32.08a.92.92 0 0 1 1 1V106a.92.92 0 0 1-1 1H311.8v17.73h40.32a.91.91 0 0 1 .96.97zm87.62-8.7c0 11.87-9.1 18.6-25.2 18.6h-33.34a.9.9 0 0 1-1-1V68.72a.91.91 0 0 1 1-1h30.4c15.65 0 24.17 6.2 24.17 17.54 0 7.46-3.77 12.35-11.43 14.63 10.72 2.3 15.4 8.75 15.4 17.1zm-28.4-38.67h-19.57v18.2h19.57c8.77 0 12.8-2.86 12.8-9.1s-4.03-9.1-12.8-9.1zM428.87 116c0-6.3-4.17-9.16-13.33-9.16h-22.82V125h22.82c9.3 0 13.33-2.7 13.33-9zM461 101.67c0-20.45 13.57-35.18 34.88-35.18h1.46c21.32 0 34.9 14.73 34.9 35.18s-13.57 35.17-34.9 35.17h-1.46c-21.32 0-34.88-14.73-34.88-35.17zm36.34 24.13c13.9 0 22.68-9.55 22.68-24.13s-8.77-24.13-22.68-24.13h-1.46c-13.9 0-22.67 9.54-22.67 24.13s8.8 24.13 22.66 24.13zm54.56-24.13c0-20.45 13.56-35.18 34.88-35.18h1.46c21.32 0 34.88 14.73 34.88 35.18s-13.56 35.17-34.88 35.17h-1.46c-21.32 0-34.88-14.73-34.88-35.17zm36.34 24.13c13.9 0 22.67-9.55 22.67-24.13s-8.77-24.13-22.67-24.13h-1.46c-13.9 0-22.67 9.54-22.67 24.13s8.77 24.13 22.67 24.13zm118.46 9.78h-12.5a1.83 1.83 0 0 1-1.69-.82 265 265 0 0 0-28-28.15h-5.62v28a.91.91 0 0 1-1 1h-9.6a.91.91 0 0 1-1-1V68.7a.91.91 0 0 1 1-1h9.7a.92.92 0 0 1 1 1v26.74h5.72a207 207 0 0 0 25.29-27 1.54 1.54 0 0 1 1.45-.72h11.83c.58 0 .87.3.87.68a1.21 1.21 0 0 1-.34.72 242 242 0 0 1-30.28 31.5 292.2 292.2 0 0 1 33.77 33.72c.45.64.16 1.22-.6 1.22z"/></svg>