<svg xmlns="http://www.w3.org/2000/svg" viewBox="0 0 470 140"><path d="M221.86 40a10.14 10.14 0 0 1-.71 3.82 9.32 9.32 0 0 1-1.94 3 8.68 8.68 0 0 1-3 2 9.46 9.46 0 0 1-3.7.72 10.14 10.14 0 0 1-3.87-.73 10 10 0 0 1-3.12-2 9.22 9.22 0 0 1-2.08-3 9.48 9.48 0 0 1 0-7.44 9.4 9.4 0 0 1 5.16-5 10 10 0 0 1 3.83-.74 10.35 10.35 0 0 1 4.4 1 9.25 9.25 0 0 1 3.38 2.62l-3.17 2.86a6 6 0 0 0-2.04-1.77 5.64 5.64 0 0 0-2.54-.59 5.14 5.14 0 0 0-2 .41 4.93 4.93 0 0 0-1.61 1.11 5.39 5.39 0 0 0-1.09 1.73 5.69 5.69 0 0 0-.39 2.11 5.58 5.58 0 0 0 .4 2.14 5.5 5.5 0 0 0 1.11 1.7 4.84 4.84 0 0 0 1.66 1.05 5.35 5.35 0 0 0 2.1.4 4.88 4.88 0 0 0 2.76-.79 3.9 3.9 0 0 0 1.6-2.05h-5v-3.9h9.83zm3.14 9.24V30.9h4.51v14.36h9.67v4zm35.14-9.17a9.25 9.25 0 0 1-2.83 6.72 9.58 9.58 0 0 1-3.11 2 10.54 10.54 0 0 1-7.71 0 9.73 9.73 0 0 1-3.12-2 9.4 9.4 0 0 1-2.07-3 9.44 9.44 0 0 1 0-7.42 9.51 9.51 0 0 1 2.07-3 9.71 9.71 0 0 1 3.12-2 10.41 10.41 0 0 1 7.71 0 9.56 9.56 0 0 1 3.11 2 9.25 9.25 0 0 1 2.83 6.72zm-4.63 0a5.5 5.5 0 0 0-.4-2.11 5.1 5.1 0 0 0-1.11-1.69 5.21 5.21 0 0 0-7.37 0 5.1 5.1 0 0 0-1.05 1.73 5.77 5.77 0 0 0 0 4.22 5 5 0 0 0 1.08 1.69A5.37 5.37 0 0 0 248.3 45a5.43 5.43 0 0 0 4.09 0 5.37 5.37 0 0 0 1.61-1.13 5 5 0 0 0 1.08-1.69 5.47 5.47 0 0 0 .43-2.11zm7.8-9.17h9.1a8.49 8.49 0 0 1 2.57.38 6.2 6.2 0 0 1 2 1.06A4.83 4.83 0 0 1 278.3 34a4.58 4.58 0 0 1 .48 2.08 4.13 4.13 0 0 1-.57 2.11 5.07 5.07 0 0 1-1.53 1.67 5.52 5.52 0 0 1 1.94 1.7 3.94 3.94 0 0 1 .73 2.31 4.82 4.82 0 0 1-1.81 3.9 7.09 7.09 0 0 1-4.69 1.49h-9.54zm8.81 3.7h-4.3v3.61h4.3a2.29 2.29 0 0 0 1.56-.5 1.75 1.75 0 0 0 0-2.62 2.33 2.33 0 0 0-1.56-.49zm.39 10.95a2.5 2.5 0 0 0 1.67-.53 1.74 1.74 0 0 0 .61-1.41 1.78 1.78 0 0 0-.61-1.42 2.55 2.55 0 0 0-1.67-.52h-4.69v3.88zm7.84 3.69l7.52-18.34H293l7.42 18.34h-4.88l-1.67-4.42h-7.16L285 49.24zm7.75-8h4.46l-2.2-5.87zm14.47 8V30.9h4.51v14.36h9.67v4zm-89.83 26.2a5.49 5.49 0 0 0 2.48-.58 6.31 6.31 0 0 0 2.05-1.71l3 2.91a9 9 0 0 1-3.36 2.57 10 10 0 0 1-4.29 1 10.31 10.31 0 0 1-3.89-.73 9.85 9.85 0 0 1-3.13-2 9.42 9.42 0 0 1-2.07-3 9.07 9.07 0 0 1-.76-3.72 9.26 9.26 0 0 1 2.84-6.74 10 10 0 0 1 3.14-2 10.14 10.14 0 0 1 3.87-.73 10.25 10.25 0 0 1 2.26.26 12.92 12.92 0 0 1 2.15.72 9.11 9.11 0 0 1 1.88 1.13 8.1 8.1 0 0 1 1.5 1.48l-3 3a6.74 6.74 0 0 0-2.17-1.83 5.51 5.51 0 0 0-2.58-.61 5.09 5.09 0 0 0-3.7 1.52 5.23 5.23 0 0 0-1.11 1.69 5.47 5.47 0 0 0-.4 2.11 5.28 5.28 0 0 0 .4 2.08A5.21 5.21 0 0 0 210.6 75a5.59 5.59 0 0 0 2.14.44zm10.19 3.9V61h4.51v14.36h9.67v4zm17.48 0V61h4.51v18.34zm18.5-1.34l-6-11.24v12.58h-4.15V61h5.69l4.55 8.64 4.5-8.64h5.68v18.34h-4.24v-12.5zm12.4 1.34L278.83 61H284l7.42 18.34h-4.88l-1.68-4.43h-7.16l-1.7 4.43zm7.75-8h4.46l-2.2-5.87zm9.75-6.34v-4h16.51v4h-6v14.34h-4.51V65zm19.29 14.34V61h14.46v3.9h-10v3.3h6.58V72h-6.54v3.46h10.07v3.9zm33.25-3.9a5.49 5.49 0 0 0 2.48-.58 6.31 6.31 0 0 0 2.05-1.71l3 2.91a9.14 9.14 0 0 1-3.37 2.57 10 10 0 0 1-4.29 1 10.31 10.31 0 0 1-3.89-.73 9.85 9.85 0 0 1-3.13-2 9.42 9.42 0 0 1-2.07-3 9.07 9.07 0 0 1-.76-3.72 9.26 9.26 0 0 1 2.84-6.74 10 10 0 0 1 3.14-2 10.14 10.14 0 0 1 3.87-.73 10.25 10.25 0 0 1 2.26.26 12.92 12.92 0 0 1 2.15.72 9.11 9.11 0 0 1 1.88 1.13A8.1 8.1 0 0 1 349 64.3l-3 3a6.74 6.74 0 0 0-2.17-1.83 5.51 5.51 0 0 0-2.58-.61 5.09 5.09 0 0 0-3.7 1.52 5 5 0 0 0-1.1 1.69 5.29 5.29 0 0 0-.41 2.11 5.12 5.12 0 0 0 .41 2.08 5 5 0 0 0 1.12 1.66 5.13 5.13 0 0 0 1.65 1.08 5.5 5.5 0 0 0 2.13.44zm10.19 3.9V61h4.51v7h7.55v-7h4.51v18.34h-4.51v-7.18h-7.55v7.18zm18.69 0L377.75 61h5.16l7.42 18.34h-4.88l-1.67-4.43h-7.16l-1.7 4.43zm7.75-8h4.46l-2.2-5.87zM392.45 61h4.24L405 71.64V61h4.24v18.34h-4l-8.6-11.06v11.06h-4.24zm39.12 9.06a10 10 0 0 1-.71 3.83 9.29 9.29 0 0 1-1.93 3 9 9 0 0 1-2.95 2 9.51 9.51 0 0 1-3.71.72 10.14 10.14 0 0 1-3.87-.74 9.77 9.77 0 0 1-3.11-2 9.35 9.35 0 0 1 0-13.44 9.75 9.75 0 0 1 3.1-2 9.88 9.88 0 0 1 3.82-.73 10.17 10.17 0 0 1 4.4 1 9.14 9.14 0 0 1 3.39 2.6l-3.17 2.85a6 6 0 0 0-2.07-1.71 5.49 5.49 0 0 0-2.54-.59 5.12 5.12 0 0 0-2 .4 4.9 4.9 0 0 0-1.61 1.12 5.3 5.3 0 0 0-1.07 1.69 5.65 5.65 0 0 0-.39 2.11 5.5 5.5 0 0 0 .41 2.13 5.4 5.4 0 0 0 1.1 1.71 4.92 4.92 0 0 0 1.66 1.12 5.42 5.42 0 0 0 2.1.41 4.84 4.84 0 0 0 2.76-.8 3.78 3.78 0 0 0 1.59-2.08h-4.95v-3.91h9.82zm3.17 9.28V61h14.47v3.9h-10v3.3h6.58V72h-6.58v3.46h10.06v3.9zm-222 26.19a5.36 5.36 0 0 0 2.48-.58 6.28 6.28 0 0 0 2.05-1.7l3 2.91a9.13 9.13 0 0 1-3.36 2.57 10.17 10.17 0 0 1-4.29 1 10.32 10.32 0 0 1-3.89-.74 9.68 9.68 0 0 1-3.13-2 9.31 9.31 0 0 1-2.07-3 9.07 9.07 0 0 1-.76-3.72 9.26 9.26 0 0 1 2.84-6.73 10 10 0 0 1 3.14-2 10.14 10.14 0 0 1 3.87-.74 9.69 9.69 0 0 1 2.26.27 11.32 11.32 0 0 1 2.15.72 9.07 9.07 0 0 1 1.88 1.12 8.42 8.42 0 0 1 1.5 1.48l-3 3a6.83 6.83 0 0 0-2.17-1.82 5.52 5.52 0 0 0-2.58-.62 5.18 5.18 0 0 0-2.05.41 5 5 0 0 0-1.65 1.11 5.33 5.33 0 0 0-1.51 3.8 5.13 5.13 0 0 0 3.23 4.86 5.41 5.41 0 0 0 2.06.4zm28.62-5.27a9.29 9.29 0 0 1-.76 3.71 9.4 9.4 0 0 1-2.07 3 9.73 9.73 0 0 1-3.12 2 10.54 10.54 0 0 1-7.71 0 9.58 9.58 0 0 1-3.11-2 9.37 9.37 0 0 1 0-13.44 9.56 9.56 0 0 1 3.11-2 10.41 10.41 0 0 1 7.71 0 9.71 9.71 0 0 1 3.12 2 9.44 9.44 0 0 1 2.07 3 9.24 9.24 0 0 1 .76 3.73zm-4.64 0a5.5 5.5 0 0 0-.4-2.11 4.93 4.93 0 0 0-2.72-2.8 5.21 5.21 0 0 0-5.73 1.11 5.2 5.2 0 0 0-1.08 1.69 5.5 5.5 0 0 0-.4 2.11 5.43 5.43 0 0 0 .4 2.11 5 5 0 0 0 1.08 1.69 5.2 5.2 0 0 0 1.64 1.12 5.43 5.43 0 0 0 4.09 0 5.2 5.2 0 0 0 1.64-1.12 5 5 0 0 0 1.08-1.69 5.43 5.43 0 0 0 .4-2.11zm7.81 9.18V91.09h9.38a7.75 7.75 0 0 1 2.6.43 6.05 6.05 0 0 1 2.05 1.21 5.47 5.47 0 0 1 1.33 1.85 5.54 5.54 0 0 1 .49 2.36 5.3 5.3 0 0 1-.94 3.09 6 6 0 0 1-2.44 2.07l4 7.34h-5l-3.46-6.69H249v6.69zm9-14.5H249v4.14h4.46a2.45 2.45 0 0 0 1.69-.57 1.92 1.92 0 0 0 .64-1.5 1.89 1.89 0 0 0-.64-1.49 2.46 2.46 0 0 0-1.66-.58zm9.94 14.5V91.09h9.67a6.8 6.8 0 0 1 2.49.45 5.74 5.74 0 0 1 2 1.24 5.83 5.83 0 0 1 1.75 4.22 5.78 5.78 0 0 1-.47 2.31 5.52 5.52 0 0 1-1.31 1.84 6.05 6.05 0 0 1-2 1.22 6.71 6.71 0 0 1-2.48.45H268v6.58zm9.15-14.5H268v4.2h4.64a2.24 2.24 0 0 0 1.58-.58 2 2 0 0 0 .62-1.49 2.06 2.06 0 0 0-.62-1.54 2.21 2.21 0 0 0-1.6-.59zm8.59 11.69l2.52-3.27a12.94 12.94 0 0 0 3.09 1.93 7.61 7.61 0 0 0 3 .61 5.27 5.27 0 0 0 2.43-.47 1.46 1.46 0 0 0 .88-1.31 1.37 1.37 0 0 0-.59-1.18 5.08 5.08 0 0 0-2-.66l-4-.71a5.86 5.86 0 0 1-3.43-1.7 4.69 4.69 0 0 1-1.21-3.33 5 5 0 0 1 2-4.18 8.92 8.92 0 0 1 5.52-1.53 12.86 12.86 0 0 1 4.13.71 11.47 11.47 0 0 1 3.57 1.91l-2.38 3.33a11 11 0 0 0-2.82-1.65 7.78 7.78 0 0 0-2.81-.53 4.59 4.59 0 0 0-2.11.4 1.28 1.28 0 0 0-.79 1.16 1.23 1.23 0 0 0 .51 1.06 3.87 3.87 0 0 0 1.66.57l3.8.63a7.21 7.21 0 0 1 4 1.75 4.61 4.61 0 0 1 1.38 3.46 5.21 5.21 0 0 1-2.16 4.4 9.58 9.58 0 0 1-5.89 1.63 12.39 12.39 0 0 1-4.39-.82 13 13 0 0 1-3.91-2.21z" fill="#fff"/><rect x="20.69" y="27.5" width="160.56" height="85" rx="42.5" fill="#4065f3"/><path d="M169.39,59.91A34.52,34.52,0,1,1,136,35.45h-.34a35.47,35.47,0,1,0,33.7,24.47Z" opacity=".2"/><circle cx="136.51" cy="69.84" r="34.88" fill="#fff"/><g fill="#4065f3"><path d="M168.63 54.88a35 35 0 0 0-3.49-5.88l-1-1.3-.69-.83-1.9-2.06a35.17 35.17 0 0 0-25.05-10.38 35.58 35.58 0 0 0-28.68 14.63l-1.73 2.63-.66 1.15a34.33 34.33 0 0 0-2.55 5.82v.13h0l-.06.2v.06l-.27.88v.06a35.43 35.43 0 0 0 65 27.12l.1-.18h0a33.56 33.56 0 0 0 2-4.4l.73-2.07v-.11-.06l.2-.69.18-.65a2.29 2.29 0 0 0 .07-.28v-.13l.49-2.24.31-2 .18-1.9.09-2.52a35.12 35.12 0 0 0-3.27-15zm.28 21.12l-.07-.18a.79.79 0 0 1 0-.43 2 2 0 0 0 0-.24c.15 0 .36.14.51.22a.53.53 0 0 1 .26.18 1.23 1.23 0 0 1 .11.41v.07l-.2 1a5.15 5.15 0 0 1-.53-.61l-.07-.11a.66.66 0 0 0 0-.14 1 1 0 0 0-.01-.17zm-6.47-27.78l.29.35a.31.31 0 0 1-.25 0c-.09-.14-.08-.26-.04-.39zm7.61 25.21a.81.81 0 0 1 .15-1c0 .36-.06.71-.09 1.06zm-1.27 6.48v.07l-.69 2a32 32 0 0 1-2 4.37l-.08.15a33.79 33.79 0 0 1-63.22-16.61 33.44 33.44 0 0 1 1.35-9.46v-.12h0l.16-.52.07-.23c0-.11.07-.23.11-.34v-.12a.14.14 0 0 0 0-.06 2.23 2.23 0 0 0 .35.17c.16.06.34.06.47.18a1.22 1.22 0 0 1 .12.19 2.5 2.5 0 0 1 .23.39 3.15 3.15 0 0 1 .09.36 2.66 2.66 0 0 1 .13.61c0 .13 0 .43-.17.46s-.22-.28-.25-.39a1 1 0 0 0-.21-.39 1.34 1.34 0 0 0-.56-.41.89.89 0 0 0-.52-.14c0 .13.16.34.21.48s.11.59.22.87a1.35 1.35 0 0 1 .12.69 3.46 3.46 0 0 1-.15.9c-.09.29-.1.59-.2.89a4.67 4.67 0 0 0-.3 1 2.35 2.35 0 0 0 0 .75 1.44 1.44 0 0 0 .09.4 9.06 9.06 0 0 0 .63.76 2.18 2.18 0 0 1 .3.78 1 1 0 0 0 .17.4 1 1 0 0 0 .23.17 1.17 1.17 0 0 1 .19.3c.09.16.19.08.29.44a9.45 9.45 0 0 0 .43 1.58 1.53 1.53 0 0 0 .53.85c.21.2.51.64.83.68-.09-.26-.41-.4-.53-.65-.06-.1-.08-.2-.14-.3s-.19-.2-.29-.31-.19-.6-.25-.9a3.29 3.29 0 0 1 0-1 4.74 4.74 0 0 1 .3.53 13.44 13.44 0 0 1 .94 1.06 2.11 2.11 0 0 0 .64.87c.18.17 0 .42 0 .65a4.51 4.51 0 0 0 0 .52c0 .24.11.3.3.41a4.41 4.41 0 0 0 .66.43 1.24 1.24 0 0 0 .59.44c.26.14.37.55.68.31.16-.13.41-.53.64-.43s.19.4.43.5a3.56 3.56 0 0 0 .86.11c.36 0 .4.32.56.67a2.76 2.76 0 0 1 .44 0c.19 0 .43 0 .57.12s.1.56.16.81a.87.87 0 0 0 .17.33c.1.12.2.08.36.08a2.22 2.22 0 0 0 .68 0 2.72 2.72 0 0 1 .49-.13.43.43 0 0 1 .33.11h.06 0-.11a.42.42 0 0 1 .16.09.27.27 0 0 0 0 .09.32.32 0 0 1 0 .09v.28a.15.15 0 0 0 0 .08s.1.07.11.12a.19.19 0 0 1-.13.23.55.55 0 0 0-.18.06.76.76 0 0 0-.16.11l-.07.08v.09c0 .03-.05 0-.06.07a.6.6 0 0 0-.19.31c0 .09 0 .2-.06.28h-.06v.09c0 .06-.12.1-.14.17v.11.14a.64.64 0 0 0-.14.22.17.17 0 0 0 0 .14.2.2 0 0 1 0 .17.59.59 0 0 0-.09.31c0 .06 0 .08.09.11a.42.42 0 0 1 .14.18.43.43 0 0 1 0 .12h0v.11a.54.54 0 0 1 0 .11l-.06.19a.43.43 0 0 0 0 .25.35.35 0 0 0 0 .08 2.94 2.94 0 0 0 .37 1l.31.42.28.46a1.53 1.53 0 0 0 .37.43 2.44 2.44 0 0 0 .44.19 1 1 0 0 1 .43.21c.15.16.12.42.3.57s.37.26.53.42a16.29 16.29 0 0 0 .4 2.42 3.93 3.93 0 0 1 .19.89 1.91 1.91 0 0 0 0 .79 7.75 7.75 0 0 1-.17 1.19c-.07.33-.09.66-.13 1v.52a.57.57 0 0 0-.16.22c-.06.13 0 .25 0 .39s.07.47.1.7c0 .48.19 1 .2 1.47v1.43a3.71 3.71 0 0 0 .56 1 3.12 3.12 0 0 0 1.29 1c.14 0 .42.18.69.21a1.54 1.54 0 0 0 1 .24c0-.22-.19-.3-.35-.41s-.43-.2-.51-.44a.91.91 0 0 0-.35-.45c-.11-.07-.24-.09-.35-.15a.57.57 0 0 1-.15-.12l-.14-.06a3.12 3.12 0 0 1 0-.43 2.38 2.38 0 0 1 .11-.53c0-.1.13-.17.17-.27a1.14 1.14 0 0 0 0-.45c0-.24.07-.45.07-.69a2.56 2.56 0 0 1 .12-1 4.23 4.23 0 0 1 .92-1.33c.1-.1.2-.23.3-.31s.3-.1.41-.23a1.19 1.19 0 0 0 .15-.41 3.18 3.18 0 0 0 .13-.51 1.48 1.48 0 0 0-.24-.75.94.94 0 0 0 .24.06 3 3 0 0 1 .43.1 1 1 0 0 0 .56-.13c.12-.07.13-.22.24-.33s.14-.12.2-.19a1.72 1.72 0 0 1 .29-.31s.11-.06.14-.09a3.54 3.54 0 0 0 .45-1.1 4.74 4.74 0 0 1 .54-1.08 1.41 1.41 0 0 1 .59-.49 3 3 0 0 0 .74-.42c.23-.19.27-.45.43-.69a1.06 1.06 0 0 0 .25-.45 4.16 4.16 0 0 0 0-.79 1.78 1.78 0 0 0-.1-.51 2 2 0 0 1 0-.55.55.55 0 0 1 .26-.38 2 2 0 0 0 .48-.4c.24-.26.64-.73.49-1.12-.06-.18-.18-.2-.32-.25s-.15-.1-.23-.14a1 1 0 0 0-.29 0H128V80c0-.26-.24-.29-.46-.33s-.31 0-.45-.08-.24-.1-.38-.14-.26-.12-.4-.17a1 1 0 0 1-.41-.2c-.16-.18-.09-.43-.32-.56s-.55-.15-.77-.27a.36.36 0 0 0 0-.23.78.78 0 0 0-.34-.24l-.2-.49c-.16-.38-.63-.5-1.11-.52a5.15 5.15 0 0 0-.78-.59h-.75a1.06 1.06 0 0 1-.61-.11c-.08-.06-.11-.17-.2-.23a2.46 2.46 0 0 1-.42-.23 2.7 2.7 0 0 1-.45-.56c-.09-.11-.12-.14-.25-.14s-.29.14-.41.28-.21.29-.3.14.09-.48-.18-.51a3.19 3.19 0 0 1-.54 0 .6.6 0 0 0-.4 0 2.48 2.48 0 0 0-.81.8c-.1.12-.35.51-.53.4s-.11-.14-.2-.19a.81.81 0 0 0-.21-.1c-.19 0-.39.17-.58.19a.87.87 0 0 1-.53-.1c-.08 0-.16-.08-.18-.15a1.21 1.21 0 0 1 .1-.44 1.77 1.77 0 0 0 .15-1.15c-.1-.27-.5-.25-.71-.12s-.43.5-.74.39c0-.24.1-.39-.06-.61s-.19-.25-.09-.46a6.54 6.54 0 0 1 .49-.72c.13-.2 0-.26-.17-.36s-.35-.22-.54-.14-.24.3-.35.46a2.51 2.51 0 0 1-.48.44c-.2.18-.47.49-.78.41s-.4-.34-.51-.49-.23-.19-.2-.39a3 3 0 0 0 .14-.61 2.08 2.08 0 0 0 0-.25A2.3 2.3 0 0 0 111 71a.85.85 0 0 1-.06-.31c0-.3.28-1.12.7-.91a2 2 0 0 0 .86.37c.2 0 .45 0 .42-.23s-.21-.4 0-.51.53.06.73.07.25-.18.44-.25.33 0 .48.09a.87.87 0 0 1 .55.61l.31.69c.09.25.19.28.29 0a3.07 3.07 0 0 0 .16-1 1.86 1.86 0 0 1 .21-1 1.49 1.49 0 0 1 .56-.47c.17-.09.38-.09.54-.19a.69.69 0 0 0 .3-.65c0-.22-.17-.43-.09-.67s.32-.28.47-.39a9.38 9.38 0 0 0 1.28-1.24 1 1 0 0 1 .73-.5 2.45 2.45 0 0 0 .85-.1c.15-.06.85-.35.71-.6s-.43-.16-.51-.33.22-.46.38-.55.32-.2.29-.46-.28-.26-.51-.25a2.47 2.47 0 0 0-.71.18 1 1 0 0 1-.41.11 1.59 1.59 0 0 1 .29-.29 2.27 2.27 0 0 1 .42-.33 9.15 9.15 0 0 1 .93-.29 2.44 2.44 0 0 1 .81 0h.42a3.94 3.94 0 0 1 .47.1 1.25 1.25 0 0 0 .78-.14c.15-.13 0-.33 0-.49s-.2-.31-.27-.5a2.08 2.08 0 0 0-.43-.67 5.24 5.24 0 0 1-.44-.61.48.48 0 0 1 0-.48c0-.18.34-1 .06-1-.12 0-.19.07-.26.13a1.7 1.7 0 0 1-.43.26c-.41.11-.75-.31-.9-.64a5.54 5.54 0 0 1-.16-.83 1 1 0 0 0-.53-.63c-.15-.06-.46-.09-.58.06s0 .18 0 .28-.2.34-.32.47a1.43 1.43 0 0 0-.44.65c-.08.35.14.73.14 1.08a1 1 0 0 1-.09.52c-.13.23-.35.41-.47.65a1.81 1.81 0 0 0-.22.54 1.22 1.22 0 0 1-.69 1 .39.39 0 0 1-.47-.12.68.68 0 0 1 0-.32 2.27 2.27 0 0 0-.08-1c-.08-.14-.15-.12-.28-.18a.7.7 0 0 1-.28-.26 6.65 6.65 0 0 0-.41-.62c-.27-.24-.52-.17-.86-.2-.17 0-.23-.12-.37-.2h-.09v-.1-.33a1.46 1.46 0 0 1 .06-.46c0-.1.1-.23.22-.24a1.19 1.19 0 0 1-.17-.51.65.65 0 0 1 .18-.56c.3-.35.86-.27 1.23-.52a.92.92 0 0 0 .31-.31 2.06 2.06 0 0 1 .12-.26 1.17 1.17 0 0 0 .17-.28c0-.07 0-.1.06-.15a.54.54 0 0 1 .42-.14c.16 0 .45-.07.53-.23a1 1 0 0 0 0-.35.45.45 0 0 1 .2-.42c.1-.07.34-.16.39-.27a.41.41 0 0 0-.06-.31.52.52 0 0 1 0-.35.29.29 0 0 1 .34 0c.13.08.22.23.36.31s.17 0 .25-.08a.85.85 0 0 0 .24-.47c0-.11.09-.24 0-.34a.8.8 0 0 0-.7-.08.86.86 0 0 0-.36.2c-.13.12-.23.27-.37.38s-.26.16-.38.05a1.7 1.7 0 0 1-.35-.63v-.41c0-.12-.29-.09-.41 0a.74.74 0 0 0-.28.14 2.9 2.9 0 0 0-.19.29.57.57 0 0 1-.4.26.63.63 0 0 1-.44-.19.36.36 0 0 0-.45 0 .8.8 0 0 1-.7.14 1.3 1.3 0 0 1-.43-.34.82.82 0 0 0-1.25-.1.8.8 0 0 0-.22.52 1 1 0 0 1-.69-.36.92.92 0 0 1-.14-.56.74.74 0 0 0-.25-.52c-.13-.09-.3 0-.43-.12s-.11-.26-.14-.39-.17-.44-.47-.45a2.37 2.37 0 0 0-.58.11c-.21 0-.31 0-.41-.23a2.27 2.27 0 0 0-.21-.41 33.92 33.92 0 0 1 26.81-13.23 33.49 33.49 0 0 1 22 8.14.23.23 0 0 0-.07.11c0 .14.1.35.17.46a1.22 1.22 0 0 1 .15.17c.08.12 0 .19-.06.3s-.08.36.12.39a.28.28 0 0 0 .33-.13c.13-.13.24-.27.36-.41l.67.64a1.32 1.32 0 0 0-.3.18 1.72 1.72 0 0 1-.16.43 1.42 1.42 0 0 1-.29.26 6 6 0 0 1-1.34.68c-.3.15-.73.29-.79.68a1.26 1.26 0 0 0 .2.8c.11.27.06.38-.2.5s-.52.34-.43.73a1.46 1.46 0 0 0 .36.64c.12.13.45.41.13.49a1.41 1.41 0 0 1-.73-.09 1.81 1.81 0 0 1-.43-.4c-.12-.11-.28-.19-.39-.3-.42.19-.25.61-.17 1a1.32 1.32 0 0 0 .13.44 2.24 2.24 0 0 0 .35.34 1.64 1.64 0 0 0 .4.29 1.77 1.77 0 0 1 .34.16c.13.11.08.44.07.61a2 2 0 0 1-.24.74 1.32 1.32 0 0 1-.47.55c-.14.07-.63.11-.67-.06s.15-.21.21-.27a2.38 2.38 0 0 0 .39-.45 1.07 1.07 0 0 0-.19-1.62c-.14-.11-.33-.15-.45-.27a1.08 1.08 0 0 1-.24-.64 3.57 3.57 0 0 0-.37-1.1c-.09-.16-.15-.3-.35-.28a.62.62 0 0 0-.48.31 2 2 0 0 0 .28 1.37c.23.38.51.72.75 1.09.1.14.42.59 0 .63s-.21-.27-.33-.42a.48.48 0 0 0-.6-.08l-.14.07a.57.57 0 0 0-.22-.11.72.72 0 0 0-.5 0c-.08 0-.13.12-.22.15s-.14 0-.21 0-.07.06-.11.09a.76.76 0 0 0-.23.24c-.09.15-.09.2-.27.26a4.42 4.42 0 0 1-.5.1 4.42 4.42 0 0 0-1 .22 1.33 1.33 0 0 0-.53.47 1.55 1.55 0 0 0-.28.56h-.06a.65.65 0 0 0-.24 0 .54.54 0 0 0-.27.09l-.1.07c-.1.07-.12 0-.17 0a.39.39 0 0 0-.29.25 1.31 1.31 0 0 1-.08.21 1.66 1.66 0 0 1-.16.21 2.49 2.49 0 0 0-.21.47.67.67 0 0 1-.33.29c-.12.07-.26.06-.39.12s-.1.09-.14.17a1.08 1.08 0 0 0-.08.19.32.32 0 0 1-.18 0c.23-.27.7-.41.71-.84s-.27-.52-.48-.74h.18.29c.09 0 .43-.21.59-.33s.12-.08.13-.15 0-.09 0-.13a.35.35 0 0 0-.08-.27.56.56 0 0 0-.2-.14c-.1-.06-.22 0-.32-.07a.61.61 0 0 1-.2-.21c-.07-.11 0-.23 0-.35s-.09-.16-.12-.23a.77.77 0 0 0-.48-.41.36.36 0 0 0-.22-.18 1.59 1.59 0 0 0-.13-.13 1.1 1.1 0 0 0-.79-.15A2.59 2.59 0 0 0 145 53a3.59 3.59 0 0 1-.59.29 4.13 4.13 0 0 0-.71.33 6.24 6.24 0 0 0-1 .65 4.13 4.13 0 0 0-.7.73.89.89 0 0 0-.15.63c-.19.42-.62.54-.92.84a1.67 1.67 0 0 0-.39.62 7.93 7.93 0 0 0-.27 1.17c0 .18-.32.63-.05.71a2.22 2.22 0 0 0 .63 0c.15 0 .27-.06.41-.06a.81.81 0 0 1 .35.07 1.16 1.16 0 0 1 .52.59c.09.19.23.42.47.42a1.54 1.54 0 0 0 1.2-.54c.25-.35-.23-.77-.31-1.08a2.37 2.37 0 0 1 .06-1.15 2 2 0 0 1 .23-.63 4 4 0 0 1 .56-.79c.33-.31.54-.11.68.24a.68.68 0 0 1-.11.58c-.14.22-.38.39-.52.61a4.44 4.44 0 0 0-.24.49c-.1.23.21.47.42.51a1.83 1.83 0 0 0 .76-.14 2.94 2.94 0 0 1 .59 0 .61.61 0 0 1 .43.13c.08 0 .18.12.11.23s-.64.11-.85.19a1 1 0 0 0-.36.2v.17a2.27 2.27 0 0 1-.06.25 1.38 1.38 0 0 1-.48.75 2.43 2.43 0 0 1-1 .52 1.75 1.75 0 0 0-.83.28.71.71 0 0 1-.72.15 2 2 0 0 0-.88 0c-.29.1-.33.34-.52.53a7.92 7.92 0 0 1-.94.89 1.65 1.65 0 0 1-.72.42 1 1 0 0 0-.71.3.49.49 0 0 0 .1.58.9.9 0 0 1 .18.64c0 .21 0 .41-.15.56s-.31.06-.47.06a1.62 1.62 0 0 0-.76.07.13.13 0 0 0-.07.18h0a.41.41 0 0 0-.22 0 .22.22 0 0 0-.15.16c0 .14.08.27.07.42a.48.48 0 0 1-.06.18l-.12.09a.87.87 0 0 0-.17.81 1.29 1.29 0 0 0 .12.38c0 .07.1.11.14.17s0 .09 0 .12a1 1 0 0 0 .58-.1c.12-.08.19-.22.35-.18s.13.11.23.13a.84.84 0 0 0 .54-.11 2.29 2.29 0 0 0 .55-.31 3 3 0 0 0 .44-.61 4.91 4.91 0 0 0 .17-.78c.07-.26.13-.44.45-.38.16 0 .32.18.48.09s.36-.42.58-.54.34.06.48.14a.88.88 0 0 1 .39.42 1.13 1.13 0 0 0 .09.28c0 .09 0 .07.14.11s.37.27.58.37.4.21.45.39-.46 1-.19 1c.08 0 .23-.11.28-.14a1.17 1.17 0 0 0 .28-.35 1.61 1.61 0 0 0 .17-.71.33.33 0 0 0-.25-.35c-.22-.11-.38-.27-.59-.39a.59.59 0 0 1-.3-.32 1 1 0 0 0-.45-.7c.25-.33 0-.41.2-.43s.15 0 .19.07c.21.13.31.36.49.52s.36.16.51.28a2 2 0 0 0 .38.27.45.45 0 0 1 .29.31 8.89 8.89 0 0 0 .28 1c.1.19.31.78.6.68s0-.39 0-.57a.53.53 0 0 1 .31-.55c.23-.08.49 0 .7-.11a.64.64 0 0 0 .32-.57 1.48 1.48 0 0 1 .26-.89c.15-.24.28-.57.61-.51a.5.5 0 0 1 .32.23c.05 0 .13.2.2.2s.11-.13.16-.19a.78.78 0 0 1 .27-.24c.13-.08.87-.43.94-.17 0 .1-.18.24-.25.31s-.29.24-.25.47c.14 0 .22-.26.38-.31a.38.38 0 0 1 .3.07.72.72 0 0 1 .37.43 1.19 1.19 0 0 1 .42.06c.09 0 .27.06.33.16a1.77 1.77 0 0 1 .14.56c0 .13-.14.48-.05.52l-.14.15-.15-.11c-.12-.07-.24-.11-.37-.17a2 2 0 0 0-1-.2 2.73 2.73 0 0 0-.8.18 3.5 3.5 0 0 1-.79 0 .9.9 0 0 0-.65.85c0 .2.29.3.47.37l.42.14c.14.05.37.22.57.3s.49.05.7.24a.73.73 0 0 1 .26.52 1.63 1.63 0 0 1-.22.65.67.67 0 0 1-.32.28c-.3.15-.5 0-.79-.07a.92.92 0 0 0-.4-.07.15.15 0 0 0-.12.06 2.31 2.31 0 0 0-1.15-.47c-.41 0-.82.15-1.23.15a2.61 2.61 0 0 0 0 .39 1.94 1.94 0 0 1 0 .68c0 .14-.14.32-.29.35a.34.34 0 0 1-.33-.1.9.9 0 0 1-.38-.34 2.55 2.55 0 0 0-.3-.43c-.1-.11-.2-.26-.31-.36s-.28-.13-.4-.22a1.93 1.93 0 0 0-1.1-.29c-.23 0-.6-.07-.57-.38s.38-.36.52-.51-.37-.44-.53-.46a1.82 1.82 0 0 0-.94.2l-.9.38a1.83 1.83 0 0 1-.87.08 1.26 1.26 0 0 0-.58 0 1.91 1.91 0 0 1-.63.17c-.52.44-1.22.95-1 1.72.06.31-.43.47-.63.61a4 4 0 0 0-.48.43 1.9 1.9 0 0 0-.61.71c-.08.2-.05.39-.13.59a2.65 2.65 0 0 0-.24.72 8.26 8.26 0 0 0-.08 1 1.42 1.42 0 0 0 .14.79c.13.19.32.32.45.5a5.51 5.51 0 0 1 .26.75 1.45 1.45 0 0 0 .43.46.56.56 0 0 0 .27.15.83.83 0 0 1 .35.05c.11.08.15.22.25.3a2.31 2.31 0 0 0 .35.18c.11.05.17.12.27.17a.83.83 0 0 0 .54 0 1.12 1.12 0 0 1 .44 0 1.32 1.32 0 0 0 .56 0 2.83 2.83 0 0 1 .3 0 1.84 1.84 0 0 0 .49-.15 1.14 1.14 0 0 1 .58-.08c.12 0 .18.21.32.17a1 1 0 0 1 .08-.42c.07-.11.17-.09.29 0a1.42 1.42 0 0 1 .4.41c.11.17.12.4.34.47s.56 0 .66.22 0 .52-.11.79-.3.5 0 .73a.78.78 0 0 1 .21.16c.06.06.1.13.15.18s.36.17.41.42a4.37 4.37 0 0 0 .16 1 4.06 4.06 0 0 1 .47.93 1.15 1.15 0 0 1-.41 1.12.89.89 0 0 0-.35.48c-.06.23 0 .27.23.51s.33.4.44.64a5.47 5.47 0 0 1 .26 1.55 4 4 0 0 0 .2.77 5.68 5.68 0 0 0 .38.64l.3.53a1.42 1.42 0 0 1 .11.65 2 2 0 0 1 0 .59c0 .12-.08.31 0 .4s.61 0 .78-.11a3.87 3.87 0 0 0 .67-.26 3.17 3.17 0 0 1 .59-.39 4.11 4.11 0 0 0 .42-.21 4.55 4.55 0 0 0 1-.81 3.45 3.45 0 0 0 .8-1.16c.09-.28 0-.52.33-.65s.49-.19.49-.45a1.31 1.31 0 0 0-.07-.44 2 2 0 0 1 0-.64c0-.31.33-.62.55-.82a1.47 1.47 0 0 1 .49-.3 1.14 1.14 0 0 0 .54-.37 1.16 1.16 0 0 0 .25-.58 2.09 2.09 0 0 0 0-.25c0-.18.06-.35.07-.53a1.18 1.18 0 0 0-.25-.71 2 2 0 0 0-.23-.4.93.93 0 0 1-.23-.3c-.07-.15 0-.25.09-.38l.43-.63.33-.4.22-.33a2.58 2.58 0 0 1 .6-.44l.46-.36a4.15 4.15 0 0 0 .46-.56l1.27-1.4a1.21 1.21 0 0 0 .24-.39c0-.23-.44-.15-.58-.14a2.78 2.78 0 0 0-.92.35A2.63 2.63 0 0 1 152 76c-.24 0-.33-.18-.47-.35a.54.54 0 0 1-.15-.25v-.37c0-.11-.07-.09-.12-.17s0-.17 0-.26-.05-.15-.07-.23 0-.21 0-.31-.21-.31-.39-.43a2.37 2.37 0 0 1-.55-.5 2.73 2.73 0 0 1-.23-.52 1.08 1.08 0 0 0-.49-.6.84.84 0 0 1-.38-.47 2.58 2.58 0 0 1 0-.62 1.33 1.33 0 0 0-.05-.43 1 1 0 0 1 .34.06 1.23 1.23 0 0 1 .82.52c.17.34.21.72.35 1.06a10.2 10.2 0 0 0 .5 1 3.61 3.61 0 0 0 .55.75 4.67 4.67 0 0 0 .41.58c.29.27.18.61.23 1 .18.05.47-.16.6-.26l.76-.63c.27-.19.57-.58 1-.62.47-.48.85-.46 1.17-.81a3.65 3.65 0 0 0 .62-.89 1.06 1.06 0 0 0 .13-.52c0-.15-.24-.21-.37-.23a3.19 3.19 0 0 0-.53-.06c-.19 0-.33 0-.35-.18s0-.29 0-.36-.39 0-.49.1c-.37.21-.85.63-1.09 0a2.3 2.3 0 0 1-.14-.42 1 1 0 0 0-.23-.44c-.15-.21-.51-.46-.53-.73s.11-.26.19-.39l.06-.11a4.86 4.86 0 0 0 .54.66c.19.18.22.28.45.32a2.59 2.59 0 0 1 .68.09l.19.12a5 5 0 0 1 .58.22c.08.06.15.19.24.21h.17a2.92 2.92 0 0 1 .59 0 8.7 8.7 0 0 1 1 .29c.29.06.59.05.75.34s.09.61.3.82.38 0 .6 0a.6.6 0 0 1 .33.09c.14.1.12.32.26.43s.4-.14.51-.35c0-.06.48-.87.63-.63 0 .07-.07.25-.08.31-.08.35-.11.72-.18 1.06a1.39 1.39 0 0 0-.07.7c0 .1.18.18.25.25a2.16 2.16 0 0 0 .24.33c.06 0 .11 0 .16.07a.43.43 0 0 1 .23.35c.08.36-.07.74 0 1.09a1.17 1.17 0 0 0 .51.59.59.59 0 0 0 .74-.08c.27-.27.19-.7.19-1.05a1.42 1.42 0 0 1 .31-.92 8 8 0 0 1 .64-.89 2.49 2.49 0 0 1 .68-.57.93.93 0 0 0 .37-.28c.08-.11.12-.25.2-.36s.66-.5.85-.1c.07.17 0 .44 0 .63a1.65 1.65 0 0 0 .21.49c.39.57.66-.46 1.05-.1a2.06 2.06 0 0 0 .25.26c.11.07.16.08.19.22a4.06 4.06 0 0 1 0 .51 2.8 2.8 0 0 1 .06.28c0 .24.19.34.34.49v.06c0 .08.06.19.1.27a1 1 0 0 1 .15.38v.21a2 2 0 0 0 .05.24v.43a.9.9 0 0 0-.08.21.77.77 0 0 0 .17.59c.07.12.09.25.16.35s.19.15.26.22a2 2 0 0 1 .27.32.53.53 0 0 1 0 .12.07.07 0 0 1 0 .05l-.14-.15c-.16 0-.16-.19-.3-.26a1.34 1.34 0 0 1-.27-.13.29.29 0 0 0-.16-.11h-.13c-.05 0-.08-.08-.13-.13a5.21 5.21 0 0 0-.62-.54c0 .1-.17.21-.08.41s.32.32.47.47.11.4.26.55a1.64 1.64 0 0 1 .25.21c.07.08.11.16.22.21s.21 0 .28.1a1 1 0 0 1 .13.28v.09l-.15.52a.42.42 0 0 0 .01.1z"/><path d="M117.59 72.31h-.12c-.03 0 0-.07-.06-.1a1 1 0 0 1-.13-.09s0-.08-.09-.09-.28 0-.39.07a4.21 4.21 0 0 1-.49.09.22.22 0 0 1-.2-.08v-.13c0-.03-.09 0-.13 0a.44.44 0 0 1-.18-.09.85.85 0 0 0-.23 0h-.15a.61.61 0 0 0-.36.11c-.1-.12-.17-.1-.24 0s.17.06.23.06h.18c.05 0 0 .16.07.24s.19.07.3.07a.66.66 0 0 1 .28 0 .37.37 0 0 0 .14.07.87.87 0 0 1 .22 0h.12.2c.07 0 .06.06.11.06h.21a.43.43 0 0 1 .16 0 .44.44 0 0 1 .2.08c.07 0 .07.11.16.1a.8.8 0 0 0 .34-.11v-.11a.52.52 0 0 0-.15-.15zm1.83.69a.3.3 0 0 0-.15-.07.78.78 0 0 1-.21 0 .52.52 0 0 0-.13-.06h-.22a.81.81 0 0 0-.14-.12.45.45 0 0 0-.2 0 .21.21 0 0 0-.17.2 2.42 2.42 0 0 0 .27.36h.25a.5.5 0 0 1 .16 0c.08 0 .12.11.19.15s.24 0 .35-.07.11-.07.12-.11-.07-.28-.12-.28zm34.38 9.57c-.09-.06-.13-.06-.35 0a5.57 5.57 0 0 1-.5.85c0-.05-.08 0-.15 0l-.13-.06a.48.48 0 0 0-.47.08c-.14.1-.17.13-.17.29v.51a1.62 1.62 0 0 1 0 .44c0 .18-.15.29-.21.45a2.07 2.07 0 0 1-.18.47 1.19 1.19 0 0 0-.18.53c-.05.84 1.42.26 1.26-.27a2.41 2.41 0 0 0 .56-1.09 4.65 4.65 0 0 0 .2-.52 1.53 1.53 0 0 1 .11-.48c.08-.16.17-.31.26-.46s.16-.2.12-.35a.52.52 0 0 0-.17-.39zm-16.11-22.49c.05.09.15.15.18.25s0 .4-.05.58.09.29.11.44a.94.94 0 0 1 0 .44c0 .06-.1.11-.14.16a1 1 0 0 0-.13.29c-.05.2 0 .26.14.35s.29.17 0 0a5.45 5.45 0 0 0 1.48-.37c.1-.06.32-.12.35-.25s-.45-.49-.62-.55-.52-.21-.59-.46a1.16 1.16 0 0 0-.18-.35 1 1 0 0 1-.15-.34c0-.18.17-.21.27-.34a.44.44 0 0 0 .06-.32c0-.3-.63-.45-.82-.2a.57.57 0 0 0 0 .46 1.25 1.25 0 0 0 .09.21zm-.99.55a1 1 0 0 0-.15.67.8.8 0 0 1 0 .31c-.05.12-.24.16-.26.31s.26.25.39.26.28 0 .07-.16a12.61 12.61 0 0 0 .87-.92c-.16.07-.15-.17-.18-.24a1.22 1.22 0 0 0-.25-.31c-.19-.17-.34-.08-.49.08zm14.62-8.37c.1.06.15.22.26.26s.21-.05.29-.1.38-.2.19-.38a5.09 5.09 0 0 1-.8-1 1.75 1.75 0 0 0 .17-.79.85.85 0 0 1 .18-.53 5.43 5.43 0 0 1 .73-1c.21-.17.48-.2.67-.38s.55-.68-.33-.72c-.22 0-.43.36-.58.55a16.23 16.23 0 0 1-1.17 1.32 2.74 2.74 0 0 0-.77 2.16c.12.59.78.41 1.16.61zm-14.25-7.48a.9.9 0 0 0-1-.38 1.73 1.73 0 0 0-.37.16l-.25.12a1 1 0 0 1-.31 0h-.19a.68.68 0 0 1-.33 0v-.05a.63.63 0 0 0-.12-.1l-.08-.08a.45.45 0 0 1 0-.22.82.82 0 0 0 0-.22.43.43 0 0 0 0-.05h0a.76.76 0 0 1 .27-.2h.12c.31-.08.55-.16.59-.35a.28.28 0 0 0-.14-.28 1.81 1.81 0 0 0-.58-.27h-.11a2.65 2.65 0 0 0-.81-.17 2.46 2.46 0 0 1-.5-.1c-.42-.12-.74.21-1 .44l-.07.07a1.21 1.21 0 0 1-.78.15h-.13a4.69 4.69 0 0 0-1.76.28 1.79 1.79 0 0 0-.66.42 1 1 0 0 0-.12.16.55.55 0 0 1-.2.2.72.72 0 0 1-.37.06h-.1a2 2 0 0 0-1 .25 1.57 1.57 0 0 0-.54.47 1.15 1.15 0 0 0-.26.58c-.06.21-.32.42-.75.59a.74.74 0 0 0-.5.68 2 2 0 0 0 .06.26v.13a.31.31 0 0 1 0 .23v.08a1.52 1.52 0 0 0-.06.32c0 .17 0 .3.17.33s.18 0 .3-.13l.16.07.75.32h0a1 1 0 0 0 .17.18 1.16 1.16 0 0 1 .25.8 1.86 1.86 0 0 0 .34.91l.15.26a.69.69 0 0 1 .1.38 1 1 0 0 1-.2.36l-.14.18a1.36 1.36 0 0 0-.22.91c.06.22.31.39.44.49l.11.07c.06 0 .14.08.15.11s0 .19-.29.49l-.15.16a2.16 2.16 0 0 0-.53.67 1 1 0 0 0 0 .74.92.92 0 0 0 .38.4c.06 0 .13.09.19.15s.08.12 0 .3a2.66 2.66 0 0 0-.17.66h0a1.14 1.14 0 0 0 .08.77 1.4 1.4 0 0 0 .6.53 1.11 1.11 0 0 0 .44.1.66.66 0 0 0 .56-.28 1.75 1.75 0 0 0 .19-.39c0-.07.05-.13.08-.19h0a4.41 4.41 0 0 1 .36-.64 2.26 2.26 0 0 1 .62-.52 3.43 3.43 0 0 0 .49-.36 2.42 2.42 0 0 0 .35-.44 1.33 1.33 0 0 1 .39-.45.48.48 0 0 1 .3-.07h.19a8.31 8.31 0 0 0 1.2-.33c.29-.09 1-.38 1.07-1 0-.29.09-.53.14-.74a2 2 0 0 1 .08-.22 1.83 1.83 0 0 0 .08-.25 1.5 1.5 0 0 0 0-.6v-.09a1.78 1.78 0 0 1 0-.72.64.64 0 0 1 .25-.42 1.11 1.11 0 0 1 .16-.12 1.27 1.27 0 0 0 .36-.33.78.78 0 0 0 .08-.39.37.37 0 0 1 0-.11v-.24c0-.12 0-.24.05-.36v-.15a.88.88 0 0 1 .13-.51.76.76 0 0 0 .08-.11 1.15 1.15 0 0 0 .25-.52c0-.18.06-.34.1-.51a.93.93 0 0 0 0-.23.5.5 0 0 1 0-.18 2.58 2.58 0 0 1 .29-.51.45.45 0 0 1 .25-.19l.27-.13a2.49 2.49 0 0 1 .33-.16.53.53 0 0 0 .36-.28.69.69 0 0 0-.09-.65zm-12.78 9.8a1.1 1.1 0 0 0 .3-.56 1 1 0 0 0-.25-.59.84.84 0 0 0-.25-.28c-.11-.07-.23-.08-.34-.14a1 1 0 0 1-.39-.51c-.11-.23 0-.43 0-.67a.92.92 0 0 0-.26-.65 1.8 1.8 0 0 0-.27-.28 1.28 1.28 0 0 1-.2-.11 5.78 5.78 0 0 1-.65-.95c0 .18 0 0-.19 0s-.28 0-.34-.09.09-.35.12-.47a.71.71 0 0 0 .05-.38.56.56 0 0 0-.55.21c-.25.28-.58.45-.82.76-.07.09-.2.31-.34.21s-.07-.37-.07-.51a1.06 1.06 0 0 1 0-.35c.07-.19.32-.45.31-.64-.55 0-1 .79-1.22.88-.26.44-.26.4-.12.54s.14.11.14.21-.09.26-.1.4a4 4 0 0 0 0 .49c0 .37.31.76.73.58.13-.06.24-.21.38-.25a.78.78 0 0 1 .43 0 .5.5 0 0 1 .27.14c.1.12.11.16.25.23.33.16.28.55.28.86a1.09 1.09 0 0 0 .06.44.37.37 0 0 1-.08.44 5.58 5.58 0 0 1-1.17 1s-.49.29-.51.38a.11.11 0 0 0 0 .12h.24.37c.28 0 .67 0 .8.27s.24.33.34.52.06.19.15.24a1 1 0 0 0 .25.08 1.52 1.52 0 0 0 .3.17l.62.18a.41.41 0 0 0 .57-.49c0-.18-.23-.3-.38-.39a.76.76 0 0 1-.3-.42c-.11-.28-.06-.8.31-.83a.83.83 0 0 1 .46.14c.16.08.32.11.47.19s.19.13.31.08a.65.65 0 0 0 .29-.2z"/><path d="M119.66 46.26c-.4 0-.43.31-.43.64s0 .6.26.72.66-.08.85.22.22.44.53.47.34 0 .51 0l.25.06c.13 0 .41 0 .42-.2a.65.65 0 0 0-.3-.47 2.17 2.17 0 0 0-.71-.17 1 1 0 0 1-.45-.21c-.07-.06-.26-.19-.25-.29 0-.3.84-.18 1-.18.61 0 .92.31 1.47.64-.24 0-.29.26-.12.32a.74.74 0 0 0 .39 0c.17-.07.12-.28.05-.42s-.19-.34 0-.49.49-.14.69-.27 0-.4 0-.57c0-.51.13-.48 1-1.07a1.23 1.23 0 0 1 .26-.12c.28-.09.56-.23.84-.32s.48-.08.55-.26-.28-.1-.37-.13a.46.46 0 0 1-.26-.17c-.18-.3.37-.41.56-.41a6.17 6.17 0 0 1 .62.09 1 1 0 0 0 .51-.16c.39-.15.87-.13 1.18-.46a.68.68 0 0 0-.14-1 1.29 1.29 0 0 0-.47-.34 4.17 4.17 0 0 0-1 .05c-.55.06-1.09-.08-1.64 0a2.49 2.49 0 0 0-1.41-.11 2.2 2.2 0 0 0-.71.19c-.07 0-.34.12-.37.21s0 .16 0 .22v.45a.46.46 0 0 0 .13.26c.13.17.05.24 0 .4s-.06.11-.12.14a.67.67 0 0 1-.42 0c-.21-.08-.18-.28-.18-.47a1.86 1.86 0 0 1 0-.47c0-.08.23-.29.17-.38a1.56 1.56 0 0 0-.52.11 2.86 2.86 0 0 0-.41.15 2.53 2.53 0 0 0-.65.73c-.13.2-.29.37-.4.58s-.42 1 0 1.13a2.81 2.81 0 0 0 .71 0h.37a.5.5 0 0 1 .42.41 1.07 1.07 0 0 1-.14.62c-.07.16-.26.16-.43.19a1.91 1.91 0 0 0-.47.12c-.12.07-.23.16-.36.22a.46.46 0 0 1-.49 0c-.09-.08-.13-.15-.24-.18a1.4 1.4 0 0 0-.28-.02zm.1-1.55c0-.09.08-.25.12-.35a.47.47 0 0 0-.1-.44c0-.06-.28-.22-.37-.2s-.24.26-.33.33a.91.91 0 0 0-.18.21c-.05.12 0 .25-.11.35a2.49 2.49 0 0 0 .79.45.89.89 0 0 1 .18-.35zm-.97 1.53a3.31 3.31 0 0 0-.56.62v.11c0 .02-.15 0-.18 0s-.15-.38-.26-.55-.18-.1-.26.06a.7.7 0 0 0 0 .66.73.73 0 0 0 .43.31c.24.08.37 0 .59-.1s.23-.07.32-.21a.81.81 0 0 0-.08-.9zm-.79 2.05a2.82 2.82 0 0 0-1 .19v.56a.65.65 0 0 1-.12.47c-.07.1-.19.24-.14.37s.4.14.53.07a1.09 1.09 0 0 0 .47-.4c.08-.16.06-.33.23-.4s.32-.09.4-.27a.41.41 0 0 0-.37-.59zm-2.32.49c.13-.13.23-.11.38-.18a.59.59 0 0 0-.15-.46c-.21-.17-.44 0-.58.19s-.26.38-.41.45-.43-.09-.53-.23a3 3 0 0 0-.19-.3c-.09-.09-.14-.07-.25-.11s-.12-.12-.15-.26l-.11-.48c-.02-.16-.08-.58-.38-.75a.68.68 0 0 0-.81.08 1.93 1.93 0 0 0-.82 1.62 1.37 1.37 0 0 0 .4.79 1 1 0 0 0 .2.22.92.92 0 0 0 .36.1c.62.11-.07.83-.13 1.15s-.07.33.13.4a1.21 1.21 0 0 0 .85-.12c.23-.1.65-.39.91-.26.08 0 .13.11.19.17a.71.71 0 0 0 .3.18 1.58 1.58 0 0 0 .86.06c.08 0 .19 0 .17-.15s-.06 0-.09-.07-.1-.11 0-.34a3.87 3.87 0 0 1-.54-1.21c.19-.12.23-.34.39-.49zm9.4 13.71c-.18-.09-.46.1-.67 0s-.37-.19-.37-.28a6.13 6.13 0 0 0-.89.44.31.31 0 0 0-.28.14c-.08.13 0 .14.12.22s.25.27.38.28.18-.07.26-.1c.37-.16.73.05 1.11 0 .2 0 .32 0 .42-.22s.1-.39-.08-.48zM135.77 56c.1-.16.13-.59-.09-.68s-.62.19-.75.29a.52.52 0 0 1-.37.16.55.55 0 0 1-.18 0 3.12 3.12 0 0 0-.83 0c-.13 0-.43-.07-.47.28a.66.66 0 0 0 .31.59.78.78 0 0 0 .71 0c.3-.11.59-.1.89-.18a1.42 1.42 0 0 0 .78-.46z"/></g><path d="M136.51,36.49a33.35,33.35,0,1,1-33.34,33.35,33.39,33.39,0,0,1,33.34-33.35m0-1.53a34.88,34.88,0,1,0,34.88,34.88A34.88,34.88,0,0,0,136.51,35Z" fill="#fff"/></svg>
