<svg xmlns="http://www.w3.org/2000/svg" viewBox="0 0 320 90"><path d="M151 27.34a11.08 11.08 0 0 1-.77 4.16 10 10 0 0 1-2.1 3.28 9.69 9.69 0 0 1-3.2 2.17 10.37 10.37 0 0 1-4 .78 11 11 0 0 1-4.2-.8 10.6 10.6 0 0 1-3.38-2.17 10.09 10.09 0 0 1-2.26-3.26 10.25 10.25 0 0 1 0-8.08 10.35 10.35 0 0 1 2.24-3.26 10.53 10.53 0 0 1 3.32-2.16 10.85 10.85 0 0 1 4.16-.79 11.11 11.11 0 0 1 4.77 1 10.08 10.08 0 0 1 3.68 2.84l-3.45 3.11a6.56 6.56 0 0 0-2.25-1.87 6 6 0 0 0-2.75-.64 5.6 5.6 0 0 0-2.22.44 5.22 5.22 0 0 0-1.75 1.21 5.77 5.77 0 0 0-1.16 1.84 6.17 6.17 0 0 0-.42 2.29 6 6 0 0 0 1.63 4.17 5.4 5.4 0 0 0 1.81 1.22 5.9 5.9 0 0 0 2.28.44 5.28 5.28 0 0 0 3-.87 4.16 4.16 0 0 0 1.72-2.26h-5.38v-4.21H151zm7.07-10.84v20.92h-4.6V17.5zm2.28 13.4a7.32 7.32 0 0 1 .64-3 7.86 7.86 0 0 1 1.74-2.49 8.08 8.08 0 0 1 2.58-1.67 8.72 8.72 0 0 1 6.41 0 8.13 8.13 0 0 1 2.59 1.67 7.84 7.84 0 0 1 1.69 2.44 7.61 7.61 0 0 1 0 6.15 7.84 7.84 0 0 1-1.73 2.49 8.08 8.08 0 0 1-2.59 1.65 8.86 8.86 0 0 1-6.41 0 8 8 0 0 1-2.58-1.65A7.86 7.86 0 0 1 161 33a7.33 7.33 0 0 1-.65-3.1zm8.17 3.82a3.47 3.47 0 0 0 2.6-1.11 4 4 0 0 0 0-5.44 3.61 3.61 0 0 0-5.21 0 4 4 0 0 0 0 5.44 3.48 3.48 0 0 0 2.61 1.11zm26.71-3.82a7.42 7.42 0 0 1-.61 3 7.61 7.61 0 0 1-1.62 2.48 8 8 0 0 1-7.59 2 7.25 7.25 0 0 1-1.85-.78v.86H179V17.5l4.61-1v6.92a6.43 6.43 0 0 1 1.89-.94 7 7 0 0 1 2.09-.31 7.59 7.59 0 0 1 5.41 2.24 7.82 7.82 0 0 1 1.63 2.46 7.66 7.66 0 0 1 .6 3.03zm-8.48-3.81a5 5 0 0 0-1.76.3 4.08 4.08 0 0 0-1.42.9v5.26a4.37 4.37 0 0 0 1.42.85 4.91 4.91 0 0 0 1.76.32 3.92 3.92 0 0 0 2.82-1.1 3.79 3.79 0 0 0 0-5.43 3.94 3.94 0 0 0-2.82-1.1zm15.71 11.58a5.86 5.86 0 0 1-3.93-1.31A4.22 4.22 0 0 1 197 33a3.88 3.88 0 0 1 1.64-3.33 7.59 7.59 0 0 1 4.57-1.2 12.47 12.47 0 0 1 1.73.12 15.54 15.54 0 0 1 1.68.31v-.74a2 2 0 0 0-.72-1.69 3.53 3.53 0 0 0-2.15-.56 8 8 0 0 0-2 .29 16.49 16.49 0 0 0-2.57.91l-1.65-3.39a20.25 20.25 0 0 1 3.57-1.24 15.34 15.34 0 0 1 3.46-.41 7.27 7.27 0 0 1 4.87 1.49 5.27 5.27 0 0 1 1.73 4.2v9.65h-4.55v-.91a6.22 6.22 0 0 1-1.92.9 8.63 8.63 0 0 1-2.23.27zm-1.08-4.75A1.25 1.25 0 0 0 202 34a3.2 3.2 0 0 0 1.74.4 7 7 0 0 0 1.55-.17 4.82 4.82 0 0 0 1.32-.54v-1.91a9.9 9.9 0 0 0-1.34-.25 10.58 10.58 0 0 0-1.39-.09 3.75 3.75 0 0 0-1.85.38 1.21 1.21 0 0 0-.65 1.1zm17.24-16.42v20.92H214V17.5zm-87.69 51.88V48.46H139a11 11 0 0 1 4.13.78 10.52 10.52 0 0 1 3.34 2.12 9.94 9.94 0 0 1 2.23 3.17 9.53 9.53 0 0 1 .83 3.94 9.25 9.25 0 0 1-.83 3.87 9.89 9.89 0 0 1-2.23 3.16 10.33 10.33 0 0 1-3.34 2.11 11.15 11.15 0 0 1-4.13.77zm8-15.6h-3.07v11.27h3.07a5.52 5.52 0 0 0 2.19-.43 5.28 5.28 0 0 0 1.78-1.18 5.54 5.54 0 0 0 1.18-1.77 5.79 5.79 0 0 0 .43-2.2 5.9 5.9 0 0 0-.43-2.23 5.84 5.84 0 0 0-1.18-1.81 5.48 5.48 0 0 0-1.78-1.2 5.36 5.36 0 0 0-2.22-.45zm15.39-.85a2.45 2.45 0 0 1-1.79-.74 2.531 2.531 0 1 1 1.79.74zm2.3 1.39v15.06H152V53.32zm9.93 15.11a7.58 7.58 0 0 1-3-.6 7.32 7.32 0 0 1-2.43-1.63 7.81 7.81 0 0 1-1.62-2.45 7.58 7.58 0 0 1-.6-3 7.34 7.34 0 0 1 .61-3 7.44 7.44 0 0 1 1.67-2.41 7.88 7.88 0 0 1 5.54-2.22 7.83 7.83 0 0 1 2 .25 7.26 7.26 0 0 1 1.79.74v-.8h4.55v14.92a5.66 5.66 0 0 1-2 4.68 9 9 0 0 1-5.78 1.64 17.52 17.52 0 0 1-3.44-.34 13.62 13.62 0 0 1-3-1l1.54-3.58a13.46 13.46 0 0 0 2.42.85 10.26 10.26 0 0 0 2.39.28 3.89 3.89 0 0 0 2.45-.65 2.35 2.35 0 0 0 .82-2v-.94a7.16 7.16 0 0 1-1.85.88 6.75 6.75 0 0 1-2.06.38zm-3.13-7.68a3.62 3.62 0 0 0 1.14 2.72 3.87 3.87 0 0 0 2.79 1.09 5 5 0 0 0 1.72-.28 4.2 4.2 0 0 0 1.38-.83v-5.32a4.66 4.66 0 0 0-1.39-.81 4.72 4.72 0 0 0-1.68-.3 3.93 3.93 0 0 0-2.8 1.08 3.52 3.52 0 0 0-1.16 2.65zm16.9-8.82a2.53 2.53 0 0 1-1.79-4.32 2.41 2.41 0 0 1 1.79-.74 2.54 2.54 0 0 1 1.8 4.32 2.48 2.48 0 0 1-1.8.74zm2.31 1.39v15.06H178V53.32zm5.09 10.47v-6.62h-3v-3.85h3v-3.86l4.61-1v4.86h4.21v3.85h-4.21v5.71a1.87 1.87 0 0 0 .44 1.41 2.23 2.23 0 0 0 1.55.42 6.83 6.83 0 0 0 1-.08 6 6 0 0 0 1.05-.24v3.73a10.3 10.3 0 0 1-1.6.33 13.42 13.42 0 0 1-1.62.12 6.06 6.06 0 0 1-4.08-1.2 4.51 4.51 0 0 1-1.35-3.58zm15.53 4.84a5.79 5.79 0 0 1-3.92-1.31 4.19 4.19 0 0 1-1.54-3.32 3.88 3.88 0 0 1 1.64-3.33 7.58 7.58 0 0 1 4.56-1.2 12.5 12.5 0 0 1 1.74.12 15.54 15.54 0 0 1 1.68.31v-.74a2 2 0 0 0-.73-1.69 3.49 3.49 0 0 0-2.15-.56 8.17 8.17 0 0 0-2 .29 17.53 17.53 0 0 0-2.56.91l-1.65-3.39a20.25 20.25 0 0 1 3.57-1.24 15.34 15.34 0 0 1 3.46-.41 7.22 7.22 0 0 1 4.86 1.49 5.25 5.25 0 0 1 1.74 4.2v9.65h-4.55v-.91a6.42 6.42 0 0 1-1.92.89 8.7 8.7 0 0 1-2.23.24zm-1.08-4.75a1.26 1.26 0 0 0 .63 1.12 3.19 3.19 0 0 0 1.73.4 7.1 7.1 0 0 0 1.56-.17 4.82 4.82 0 0 0 1.32-.54v-1.95a9.9 9.9 0 0 0-1.34-.25 10.58 10.58 0 0 0-1.39-.09 3.73 3.73 0 0 0-1.85.38 1.22 1.22 0 0 0-.66 1.1zm17.24-16.42v20.92h-4.6V48.46zm19.01 16.68a5.85 5.85 0 0 0 2.69-.63 6.89 6.89 0 0 0 2.23-1.85l3.22 3.16a10 10 0 0 1-3.66 2.79 10.94 10.94 0 0 1-4.65 1 11.25 11.25 0 0 1-4.23-.8 10.51 10.51 0 0 1-3.4-2.16 10.22 10.22 0 0 1-2.24-11.34 9.84 9.84 0 0 1 2.26-3.25 10.93 10.93 0 0 1 3.4-2.17 11.1 11.1 0 0 1 4.21-.79 10.69 10.69 0 0 1 2.44.28 12.85 12.85 0 0 1 2.34.78 10.32 10.32 0 0 1 2.05 1.23A9.45 9.45 0 0 1 246.7 52l-3.3 3.25a7.49 7.49 0 0 0-2.35-2 6.09 6.09 0 0 0-2.8-.67 5.69 5.69 0 0 0-2.23.44 5.54 5.54 0 0 0-1.8 1.21 5.67 5.67 0 0 0-1.22 1.9 5.81 5.81 0 0 0-.44 2.29 5.63 5.63 0 0 0 1.66 4.07 5.87 5.87 0 0 0 1.85 1.21 6.07 6.07 0 0 0 2.35.44zm8.85-3.28a7.32 7.32 0 0 1 .64-3 7.68 7.68 0 0 1 1.73-2.49 8.13 8.13 0 0 1 2.59-1.67 8.7 8.7 0 0 1 6.4 0 8 8 0 0 1 2.59 1.67 7.86 7.86 0 0 1 1.78 2.44 7.61 7.61 0 0 1 0 6.11 7.86 7.86 0 0 1-1.74 2.49 8 8 0 0 1-2.59 1.65 8.83 8.83 0 0 1-6.4 0 8.08 8.08 0 0 1-2.59-1.65 7.68 7.68 0 0 1-1.73-2.49 7.33 7.33 0 0 1-.68-3.06zm8.16 3.82a3.49 3.49 0 0 0 2.57-1.11 4 4 0 0 0 0-5.44 3.61 3.61 0 0 0-5.21 0 4 4 0 0 0 0 5.44 3.47 3.47 0 0 0 2.64 1.11zm10.44 3.7V53.32h4.61v1.51a5.31 5.31 0 0 1 1.74-1.36 4.89 4.89 0 0 1 2.22-.49 10.45 10.45 0 0 1 1.05.1 1.73 1.73 0 0 1 .68.27v4a5.32 5.32 0 0 0-1-.32 5.06 5.06 0 0 0-1.17-.13 4 4 0 0 0-2 .51 4.11 4.11 0 0 0-1.5 1.4v9.56zm12.41 6V53.32h4.55v1.11a7.14 7.14 0 0 1 1.91-1 6.6 6.6 0 0 1 2.13-.34 7.59 7.59 0 0 1 5.45 2.24 7.88 7.88 0 0 1 1.68 2.5 7.66 7.66 0 0 1 .6 3 7.42 7.42 0 0 1-.61 3 7.75 7.75 0 0 1-1.66 2.45 8 8 0 0 1-2.54 1.72 8.25 8.25 0 0 1-5.08.34 7.64 7.64 0 0 1-1.82-.74v6.8zm7.79-17.33a5 5 0 0 0-1.76.3 4.08 4.08 0 0 0-1.42.9v5.26a4.3 4.3 0 0 0 1.42.85 4.91 4.91 0 0 0 1.76.32 3.92 3.92 0 0 0 2.82-1.1 3.79 3.79 0 0 0 0-5.43 3.94 3.94 0 0 0-2.82-1.1zm9.59 9.65l2.19-3.1a13.2 13.2 0 0 0 2.59 1.23 7.27 7.27 0 0 0 2.31.39 4.1 4.1 0 0 0 1.8-.33 1 1 0 0 0 .67-.87.81.81 0 0 0-.37-.69 2.57 2.57 0 0 0-1.17-.39l-3-.45a6.16 6.16 0 0 1-3.42-1.5 4 4 0 0 1-1.19-3 4.24 4.24 0 0 1 1.73-3.58 7.69 7.69 0 0 1 4.76-1.31 12 12 0 0 1 6.28 1.82l-2.19 3a10.4 10.4 0 0 0-2.33-1 7.76 7.76 0 0 0-2.22-.33 2.91 2.91 0 0 0-1.42.3.89.89 0 0 0-.54.78.83.83 0 0 0 .4.73 3.36 3.36 0 0 0 1.36.41l3 .46a6 6 0 0 1 3.43 1.46 3.88 3.88 0 0 1 1.21 2.92 4.08 4.08 0 0 1-.52 2 5.26 5.26 0 0 1-1.4 1.62 7.09 7.09 0 0 1-2.15 1.07 9.44 9.44 0 0 1-2.71.38 15.12 15.12 0 0 1-4-.5 9.35 9.35 0 0 1-3.1-1.52z" fill="#fff"/><rect x="10" y="16.22" width="102.56" height="54.29" rx="27.15" fill="#4065f3"/><path d="M105 36.92A22.05 22.05 0 1 1 83.67 21.3h-.21A22.68 22.68 0 1 0 105 36.92z" opacity=".2"/><circle cx="83.98" cy="43.26" r="22.28" fill="#fff"/><g fill="#4065f3"><path d="M104.5 33.71a22.38 22.38 0 0 0-2.23-3.77l-.63-.83-.44-.53-1.22-1.31a22.44 22.44 0 0 0-16-6.63A22.68 22.68 0 0 0 65.67 30l-1.12 1.68-.41.73a22.43 22.43 0 0 0-1.63 3.72v.08h0a.56.56 0 0 1 0 .12h0l-.17.56h0a22.63 22.63 0 0 0 41.49 17.33l.07-.12h0a22.9 22.9 0 0 0 1.3-2.81l.47-1.33a.19.19 0 0 1 0-.07h0c0-.15.09-.3.13-.44l.11-.41a1.21 1.21 0 0 0 .05-.18.29.29 0 0 0 0-.09l.32-1.42.19-1.29.12-1.22.06-1.61a22.37 22.37 0 0 0-2.15-9.52zm.18 13.46a.37.37 0 0 0-.05-.11.53.53 0 0 1 0-.28v-.15c.09 0 .23.09.32.14a.34.34 0 0 1 .17.11 1 1 0 0 1 .07.26h0c0 .22-.08.44-.13.64a2.57 2.57 0 0 1-.34-.39.16.16 0 0 1 0-.07v-.09s-.03-.02-.04-.06zm-4.13-17.75l.18.23a.22.22 0 0 1-.16 0c-.06-.06-.05-.14-.02-.23zm4.85 16.11a.53.53 0 0 1 .1-.63c0 .23 0 .45-.06.67zm-.8 4.14h0l-.44 1.27a20.87 20.87 0 0 1-1.31 2.8v.09a21.59 21.59 0 0 1-39.59-16.62v-.07h0c0-.11.07-.22.1-.33v-.15c0-.07 0-.14.07-.22v-.07h0a1.13 1.13 0 0 0 .22.11c.1 0 .22 0 .3.11a1.25 1.25 0 0 1 .08.12l.14.25a2 2 0 0 1 .06.23 1.89 1.89 0 0 1 .08.4c0 .08 0 .27-.1.29s-.15-.18-.17-.25a.55.55 0 0 0-.13-.25.86.86 0 0 0-.36-.26c-.1 0-.21-.12-.33-.09s.11.22.13.31l.14.55a.83.83 0 0 1 .09.44 2.72 2.72 0 0 1-.1.57c-.06.19-.07.38-.13.57a2.66 2.66 0 0 0-.19.65 1.55 1.55 0 0 0 0 .48.76.76 0 0 0 .06.25 4.52 4.52 0 0 0 .4.49 1.44 1.44 0 0 1 .19.5.57.57 0 0 0 .11.25.83.83 0 0 0 .15.11 1.22 1.22 0 0 1 .12.19c0 .1.12.06.18.29a7.21 7.21 0 0 0 .28 1 1 1 0 0 0 .34.54c.13.13.32.4.53.43-.06-.17-.27-.25-.34-.41s0-.13-.09-.19a1.8 1.8 0 0 0-.18-.2c-.15-.16-.13-.38-.17-.58a2.22 2.22 0 0 1 0-.63 2.3 2.3 0 0 1 .19.33c.22.18.41.49.6.68a1.39 1.39 0 0 0 .41.56c.12.11 0 .27 0 .41a1.93 1.93 0 0 0 0 .34c0 .15.07.19.18.26a3.12 3.12 0 0 0 .43.27.78.78 0 0 0 .37.28c.17.09.24.36.44.2s.26-.33.41-.27.12.26.27.32a2.51 2.51 0 0 0 .55.07c.23 0 .25.2.36.43a1.14 1.14 0 0 1 .28 0c.12 0 .27 0 .36.08s.07.35.11.51a.43.43 0 0 0 .11.21c.06.07.12 0 .22 0a1.3 1.3 0 0 0 .44 0 1.77 1.77 0 0 1 .31-.08.26.26 0 0 1 .21.07h0 0-.06.1a.06.06 0 0 0 0 .06v.06a1.1 1.1 0 0 0 0 .18s.06.05.07.08a.11.11 0 0 1-.08.14.25.25 0 0 0-.12 0l-.1.07v.05.06.05s-.11.11-.11.19v.18c0 .05 0 0 0 0v.06s-.08.07-.09.11 0 0 0 .07v.09a.31.31 0 0 0-.09.14.14.14 0 0 0 0 .09.11.11 0 0 1 0 .11.36.36 0 0 0-.06.2.13.13 0 0 0 .06.07.33.33 0 0 1 .09.11.19.19 0 0 1 0 .08h0a.28.28 0 0 1 0 .14v.12a.18.18 0 0 0 0 .16h0a2 2 0 0 0 .24.64c.06.1.14.17.19.27a1.81 1.81 0 0 0 .19.29 1 1 0 0 0 .23.28 1.39 1.39 0 0 0 .28.12.72.72 0 0 1 .27.42c.09.11.08.27.19.37a2.88 2.88 0 0 1 .34.27 10.09 10.09 0 0 0 .25 1.54 1.94 1.94 0 0 1 .12.57 1.2 1.2 0 0 0 0 .5 3.76 3.76 0 0 1-.11.76c0 .22 0 .43-.08.64s0 .22 0 .33a.49.49 0 0 0-.1.15v.25a3.11 3.11 0 0 1 .06.44c0 .31.12.63.13.94v.92a2.39 2.39 0 0 0 .36.64 2 2 0 0 0 .82.64c.09 0 .28.12.45.14a1.05 1.05 0 0 0 .6.15c0-.14-.12-.19-.22-.27s-.28-.12-.33-.28a.54.54 0 0 0-.22-.28 2.14 2.14 0 0 0-.22-.1l-.1-.07-.09-.05a2.53 2.53 0 0 1 0-.27 1.37 1.37 0 0 1 .07-.34c0-.06.08-.11.1-.17a.7.7 0 0 0 0-.29v-.44a1.84 1.84 0 0 1 .07-.66 3 3 0 0 1 .6-.85 1.7 1.7 0 0 1 .19-.19c.08-.07.19-.06.26-.15a.8.8 0 0 0 .09-.26 1.78 1.78 0 0 0 .09-.33 1 1 0 0 0-.16-.48h.16c.1 0 .18.05.27.06a.57.57 0 0 0 .36-.08c.08 0 .08-.14.15-.21l.13-.12a1.16 1.16 0 0 1 .18-.2s.07 0 .09-.06a1.89 1.89 0 0 0 .29-.7 3.68 3.68 0 0 1 .34-.69.85.85 0 0 1 .39-.31 1.85 1.85 0 0 0 .47-.27c.15-.12.17-.29.27-.44a.64.64 0 0 0 .16-.29 2.77 2.77 0 0 0 0-.5 1.3 1.3 0 0 0-.07-.33 1.36 1.36 0 0 1 0-.35.33.33 0 0 1 .19-.31 1.48 1.48 0 0 0 .31-.25c.15-.17.41-.47.31-.72s-.11-.12-.21-.16l-.14-.08a.4.4 0 0 0-.19 0h-.09 0c0-.17-.16-.19-.29-.22a1.35 1.35 0 0 1-.29 0l-.25-.08c-.09 0-.16-.08-.25-.12a.57.57 0 0 1-.26-.12c-.1-.12-.06-.28-.2-.36s-.36-.09-.5-.17a.2.2 0 0 0 0-.15.4.4 0 0 0-.22-.15c0-.11-.08-.23-.12-.32-.1-.24-.4-.31-.71-.32a2.64 2.64 0 0 0-.5-.38h-.48a.74.74 0 0 1-.39-.07s-.07-.16-.07-.2a1.74 1.74 0 0 1-.26-.15 1.59 1.59 0 0 1-.29-.35c-.06-.08-.08-.09-.16-.09s-.19.09-.26.18-.13.18-.19.08.06-.3-.12-.32-.23 0-.35 0a.36.36 0 0 0-.25 0 1.69 1.69 0 0 0-.52.51c-.06.07-.22.32-.34.25s-.07-.09-.13-.12A.31.31 0 0 0 71 47c-.12 0-.25.1-.37.12a.66.66 0 0 1-.34-.06s-.1 0-.11-.1a.71.71 0 0 1 .06-.28 1.19 1.19 0 0 0 .1-.74c-.07-.17-.32-.16-.46-.07s-.27.31-.47.24c0-.15.07-.24 0-.38s-.12-.16-.06-.3a4.73 4.73 0 0 1 .32-.46c.08-.12 0-.17-.11-.23s-.22-.14-.35-.09-.15.2-.22.29a1.64 1.64 0 0 1-.3.29c-.13.11-.3.31-.5.26s-.26-.22-.33-.31-.15-.13-.13-.25a1.83 1.83 0 0 0 .09-.39.86.86 0 0 0 0-.16 1.5 1.5 0 0 0 0-.37.48.48 0 0 1 0-.2c0-.19.18-.72.45-.58a1.27 1.27 0 0 0 .55.23c.12 0 .28 0 .27-.14s-.14-.26 0-.33.34 0 .47.05.16-.12.29-.16.2 0 .3.06a.54.54 0 0 1 .35.38l.2.44c.06.16.12.19.18 0a2.12 2.12 0 0 0 .11-.61 1.12 1.12 0 0 1 .13-.65 1 1 0 0 1 .36-.3 3.4 3.4 0 0 0 .34-.12.4.4 0 0 0 .19-.41c0-.15-.1-.28 0-.43s.2-.18.3-.25a6.73 6.73 0 0 0 .81-.79c.13-.16.25-.31.47-.32a1.73 1.73 0 0 0 .55-.07c.09 0 .54-.22.45-.38s-.28-.1-.33-.21.14-.3.24-.35.21-.13.19-.3-.18-.16-.33-.16a1.88 1.88 0 0 0-.45.12.63.63 0 0 1-.26.07.81.81 0 0 1 .18-.19 1.78 1.78 0 0 1 .27-.21 5.76 5.76 0 0 1 .59-.18 1.51 1.51 0 0 1 .52 0 2.43 2.43 0 0 1 .27 0 1.59 1.59 0 0 1 .3.06A.79.79 0 0 0 76 38c.09-.08 0-.21 0-.31s-.13-.2-.17-.32a1.52 1.52 0 0 0-.28-.43 3.48 3.48 0 0 1-.28-.39.31.31 0 0 1 0-.31c0-.11.22-.64 0-.67s-.12 0-.17.08a.77.77 0 0 1-.27.17c-.26.07-.48-.2-.58-.41a3.1 3.1 0 0 1-.1-.53.62.62 0 0 0-.34-.4c-.1 0-.29-.06-.37 0s0 .11 0 .18-.13.22-.21.3a.89.89 0 0 0-.28.41c0 .23.09.47.09.69a.63.63 0 0 1-.06.33c-.08.15-.22.27-.3.42a1.05 1.05 0 0 0-.13.35.78.78 0 0 1-.45.65.25.25 0 0 1-.3-.07.49.49 0 0 1 0-.21 1.33 1.33 0 0 0 0-.66c-.05-.09-.09-.08-.18-.12s-.12-.1-.18-.16a2.75 2.75 0 0 0-.26-.4c-.17-.16-.33-.11-.55-.13s-.14-.07-.23-.12h-.06a.25.25 0 0 1 0-.07 1.34 1.34 0 0 1 0-.2.78.78 0 0 1 0-.3.18.18 0 0 1 .14-.16.68.68 0 0 1-.11-.32.39.39 0 0 1 .12-.35c.18-.23.55-.18.78-.34a.46.46 0 0 0 .19-.2 1.29 1.29 0 0 1 .09-.16 1.62 1.62 0 0 0 .1-.18v-.1a.37.37 0 0 1 .27-.09c.1 0 .29 0 .33-.14a.45.45 0 0 0 0-.23.29.29 0 0 1 .12-.26c.07-.05.22-.11.25-.18a.27.27 0 0 0 0-.2.28.28 0 0 1 0-.22.18.18 0 0 1 .22 0c.08.05.14.15.23.2s.11 0 .16-.05a.57.57 0 0 0 .15-.3c0-.07.06-.15 0-.22a.51.51 0 0 0-.45-.05.72.72 0 0 0-.23.12 2.73 2.73 0 0 1-.23.25c-.08.06-.17.1-.25 0a1.2 1.2 0 0 1-.22-.4v-.26c0-.07-.18-.06-.26 0a.37.37 0 0 0-.17.1c-.06.05-.08.12-.13.18a.33.33 0 0 1-.25.16.36.36 0 0 1-.28-.12.24.24 0 0 0-.29 0 .52.52 0 0 1-.45.09.73.73 0 0 1-.27-.22.52.52 0 0 0-.8-.06.44.44 0 0 0-.1.34.62.62 0 0 1-.44-.23.57.57 0 0 1-.09-.36.52.52 0 0 0-.16-.33c-.09-.06-.2 0-.28-.08s-.07-.16-.08-.25a.35.35 0 0 0-.31-.29 1.63 1.63 0 0 0-.37.08.22.22 0 0 1-.26-.15 1.26 1.26 0 0 0-.13-.26A21.66 21.66 0 0 1 84 21.68a21.41 21.41 0 0 1 14 5.19.15.15 0 0 0 0 .13c0 .09.06.22.1.29l.1.11v.19c0 .07-.05.23.08.25a.2.2 0 0 0 .21-.08l.23-.26.43.41A.53.53 0 0 0 99 28a.94.94 0 0 1-.1.28 1 1 0 0 1-.19.17 4 4 0 0 1-.85.43c-.19.09-.47.19-.5.43a.81.81 0 0 0 .12.51c.07.18 0 .25-.12.32s-.34.22-.28.47a.93.93 0 0 0 .23.41c.08.08.29.26.08.31a.82.82 0 0 1-.46-.06 1 1 0 0 1-.28-.25 2.51 2.51 0 0 1-.24-.19c-.28.12-.17.39-.12.61a.7.7 0 0 0 .09.29.87.87 0 0 0 .22.21 1 1 0 0 0 .26.19c.07 0 .16 0 .21.1s.06.28 0 .39a1.52 1.52 0 0 1-.15.47.9.9 0 0 1-.31.36c-.08 0-.4.07-.43 0s.1-.14.14-.18a1.32 1.32 0 0 0 .25-.28.68.68 0 0 0-.12-1c-.09-.07-.21-.09-.29-.17a.69.69 0 0 1-.15-.41 2.24 2.24 0 0 0-.24-.7c-.06-.1-.1-.19-.22-.18a.42.42 0 0 0-.31.2 1.28 1.28 0 0 0 .18.87c.15.25.33.46.48.7s.27.38 0 .4-.13-.17-.21-.26a.29.29 0 0 0-.38-.06h-.09l-.14-.08a.44.44 0 0 0-.32 0s-.08.08-.14.1-.09 0-.13 0h-.07a.57.57 0 0 0-.15.16c-.06.09-.06.13-.18.17s-.21 0-.31.06a3 3 0 0 0-.66.14.79.79 0 0 0-.33.3 1 1 0 0 0-.18.36h0-.15a.42.42 0 0 0-.17 0l-.07.05c-.07.05-.07 0-.11 0a.29.29 0 0 0-.18.16v.14a1.47 1.47 0 0 1-.1.13 1.64 1.64 0 0 0-.14.3.39.39 0 0 1-.21.19 1.82 1.82 0 0 1-.25.07.24.24 0 0 0-.09.11.61.61 0 0 0 0 .12.21.21 0 0 1-.12 0c.15-.17.45-.26.46-.54s-.17-.32-.31-.46h.12.18a.72.72 0 0 0 .38-.21s.08 0 .08-.09a.27.27 0 0 0 0-.09.22.22 0 0 0 0-.17.38.38 0 0 0-.13-.09h-.2a.3.3 0 0 1-.12-.13v-.23c0-.08-.06-.09-.08-.14a.51.51 0 0 0-.31-.26.22.22 0 0 0-.14-.11l-.08-.09a.76.76 0 0 0-.51-.1 1.68 1.68 0 0 0-.77.31 2.69 2.69 0 0 1-.38.19 2 2 0 0 0-.45.2 4.25 4.25 0 0 0-.67.43 2.22 2.22 0 0 0-.42.49c-.1.14-.09.2-.09.4s-.4.35-.6.54a1.36 1.36 0 0 0-.25.4 6.11 6.11 0 0 0-.17.74c0 .12-.2.41 0 .46a1.41 1.41 0 0 0 .41 0 2 2 0 0 1 .26 0 .54.54 0 0 1 .22 0 .77.77 0 0 1 .33.38c.06.12.15.27.3.27a1 1 0 0 0 .77-.35c.16-.22-.15-.49-.2-.69a1.51 1.51 0 0 1 0-.73 1.14 1.14 0 0 1 .15-.4 2.24 2.24 0 0 1 .36-.51c.21-.19.34-.07.43.15a.44.44 0 0 1-.08.38c-.08.14-.23.24-.32.38a1.91 1.91 0 0 0-.16.32c-.06.14.14.3.27.32a1.1 1.1 0 0 0 .48-.08 1.63 1.63 0 0 1 .38 0 .45.45 0 0 1 .28.07s.11.08.07.15-.41.07-.55.12a.76.76 0 0 0-.23.13.41.41 0 0 0 0 .11v.16a.86.86 0 0 1-.31.48 1.64 1.64 0 0 1-.66.33 1.08 1.08 0 0 0-.53.18.57.57 0 0 1-.23.12.86.86 0 0 1-.23 0 1.18 1.18 0 0 0-.56 0c-.19.06-.21.21-.34.34a6.21 6.21 0 0 1-.59.56 1.18 1.18 0 0 1-.47.27.69.69 0 0 0-.45.2.31.31 0 0 0 .06.36.54.54 0 0 1 .12.41c0 .14 0 .27-.1.36s-.2 0-.3 0a1.11 1.11 0 0 0-.48 0 .1.1 0 0 0 0 .12h0a.34.34 0 0 0-.14 0 .18.18 0 0 0-.09.1v.26a.34.34 0 0 1 0 .12l-.08.06a.56.56 0 0 0-.11.52.75.75 0 0 0 .08.24.87.87 0 0 0 .09.11v.07a.6.6 0 0 0 .37-.06c.07 0 .12-.14.22-.11s.09.07.15.08a.61.61 0 0 0 .35-.07 1.27 1.27 0 0 0 .34-.2 2.19 2.19 0 0 0 .29-.39 2 2 0 0 0 .1-.5c0-.16.09-.28.29-.24s.21.12.31.05.02-.26.17-.26.22 0 .31.09a.53.53 0 0 1 .24.27 1.89 1.89 0 0 1 .06.18c0 .06 0 0 .09.07s.24.17.37.23.26.14.29.25-.29.62-.12.65.15-.06.18-.09a.65.65 0 0 0 .18-.22 1.15 1.15 0 0 0 .1-.43.23.23 0 0 0-.16-.23 2.26 2.26 0 0 1-.38-.25.34.34 0 0 1-.19-.2.69.69 0 0 0-.29-.45c.16-.2 0-.26.13-.27s.09 0 .12.05.2.22.31.33.23.1.33.17a1.37 1.37 0 0 0 .24.18.3.3 0 0 1 .19.19 6.17 6.17 0 0 0 .17.65c.07.12.2.5.39.44s0-.25 0-.37a.33.33 0 0 1 .19-.35c.15-.05.32 0 .45-.07a.4.4 0 0 0 .21-.36 1 1 0 0 1 .16-.58c.1-.15.18-.36.39-.32a.34.34 0 0 1 .21.14s.08.14.12.14.08-.09.1-.12a.55.55 0 0 1 .18-.16c.08 0 .55-.27.6-.11s-.11.16-.16.2-.18.16-.16.3c.09 0 .14-.16.24-.2a.31.31 0 0 1 .19 0 .47.47 0 0 1 .24.28h.27c.09 0 .17 0 .21.1a1.12 1.12 0 0 1 .09.36c0 .08-.09.31 0 .33L93 41l-.1-.07a2.4 2.4 0 0 0-.23-.11 1.33 1.33 0 0 0-.65-.13 1.73 1.73 0 0 0-.51.12 2.8 2.8 0 0 1-.5 0 .57.57 0 0 0-.42.54c0 .13.19.19.3.24l.27.09c.13 0 .24.14.36.19s.32 0 .45.15a.45.45 0 0 1 .17.33.94.94 0 0 1-.16.4.39.39 0 0 1-.2.18c-.19.1-.32 0-.51 0a.73.73 0 0 0-.25 0 .12.12 0 0 0-.08 0 1.41 1.41 0 0 0-.73-.3c-.27 0-.53.09-.79.09a1 1 0 0 0 0 .25 1.29 1.29 0 0 1 0 .44c0 .09-.09.2-.19.22s-.14 0-.21-.06a.64.64 0 0 1-.24-.22 1.73 1.73 0 0 0-.19-.28l-.2-.23c-.07-.07-.18-.08-.26-.14a1.2 1.2 0 0 0-.7-.18c-.14 0-.38 0-.36-.24s.24-.23.33-.33-.23-.28-.34-.29a1.16 1.16 0 0 0-.6.12l-.57.25a1.32 1.32 0 0 1-.56 0 .77.77 0 0 0-.37 0 1.33 1.33 0 0 1-.4.11c-.34.28-.78.61-.67 1.1 0 .2-.27.3-.4.39a2.73 2.73 0 0 0-.31.27 1.4 1.4 0 0 0-.39.45c0 .13 0 .26-.08.38a2.06 2.06 0 0 0-.15.46 4.6 4.6 0 0 0-.05.64.85.85 0 0 0 .09.5c.08.12.2.2.28.32s.1.33.17.48a.94.94 0 0 0 .27.29.4.4 0 0 0 .18.1h.22c.06 0 .1.14.16.19a1 1 0 0 0 .23.12l.17.11a.5.5 0 0 0 .34 0 .74.74 0 0 1 .29 0 .7.7 0 0 0 .35 0h.19a1.81 1.81 0 0 0 .31-.09.71.71 0 0 1 .38-.06c.07 0 .11.13.2.11a.62.62 0 0 1 .05-.27c0-.07.11-.06.19 0a.92.92 0 0 1 .25.27c.07.11.08.26.22.29s.35 0 .42.15 0 .33-.07.5-.19.32 0 .47a.61.61 0 0 1 .14.1l.09.12c.1.1.23.1.26.26a2.68 2.68 0 0 0 .11.63 2.94 2.94 0 0 1 .29.59.7.7 0 0 1-.26.71.63.63 0 0 0-.22.31c0 .15 0 .17.15.32s.21.26.28.42a3.31 3.31 0 0 1 .16 1 3 3 0 0 0 .13.49 3.45 3.45 0 0 0 .25.41l.18.33a.88.88 0 0 1 .08.42 1.64 1.64 0 0 1 0 .38v.25c0 .06.39 0 .5-.07a2.26 2.26 0 0 0 .43-.17 2.49 2.49 0 0 1 .38-.25 1.58 1.58 0 0 0 .26-.13 2.81 2.81 0 0 0 .67-.52 2 2 0 0 0 .51-.74c.06-.18 0-.33.21-.41s.31-.12.32-.29a.92.92 0 0 0-.05-.28 1.42 1.42 0 0 1 0-.41c0-.2.21-.39.35-.52a1 1 0 0 1 .32-.2.74.74 0 0 0 .35-.23.81.81 0 0 0 .15-.37.86.86 0 0 0 0-.16c0-.12 0-.23.05-.34a.75.75 0 0 0-.16-.45 2.2 2.2 0 0 0-.15-.26.7.7 0 0 1-.15-.19c0-.1 0-.16.06-.24l.27-.4.22-.26.14-.21a1.49 1.49 0 0 1 .38-.28l.29-.23a2.49 2.49 0 0 0 .3-.36l.81-.89a.82.82 0 0 0 .16-.25c0-.15-.29-.1-.38-.09a1.52 1.52 0 0 0-.58.22 1.79 1.79 0 0 1-.75.17c-.16 0-.22-.12-.31-.23a.28.28 0 0 1-.09-.16v-.23c0-.07 0-.06-.08-.11s0-.11 0-.17v-.15a1.25 1.25 0 0 0 0-.19c0-.15-.13-.2-.25-.28a1.32 1.32 0 0 1-.35-.32 2.52 2.52 0 0 1-.15-.33.65.65 0 0 0-.31-.38.54.54 0 0 1-.24-.3 1.79 1.79 0 0 1 0-.4.71.71 0 0 0 0-.28.71.71 0 0 1 .21 0 .78.78 0 0 1 .53.34 5.39 5.39 0 0 1 .22.68c.09.22.22.41.32.62a2.13 2.13 0 0 0 .36.49c.1.12.13.26.26.37s.11.38.15.61c.11 0 .3-.1.38-.16s.31-.29.48-.41.37-.37.66-.39c.3-.31.54-.3.75-.52a2.4 2.4 0 0 0 .39-.57.68.68 0 0 0 .09-.33c0-.1-.16-.13-.24-.15a2 2 0 0 0-.34 0c-.12 0-.21 0-.22-.11s0-.19 0-.23-.25 0-.31.06c-.24.13-.55.4-.7 0a1.34 1.34 0 0 1-.09-.26.59.59 0 0 0-.15-.28c-.09-.14-.32-.3-.34-.47a.44.44 0 0 1 .13-.25v-.07a3.54 3.54 0 0 0 .35.42c.12.11.14.18.29.21a1.58 1.58 0 0 1 .43.05l.12.08a2 2 0 0 1 .37.14s.1.12.15.13h.11a2.36 2.36 0 0 1 .38 0c.24 0 .43.14.66.18s.37 0 .48.22.06.39.19.53.24 0 .38 0a.47.47 0 0 1 .21.06c.09.07.08.2.17.27s.26-.08.32-.22.31-.56.41-.4 0 .16 0 .2c-.06.22-.07.45-.12.67a1 1 0 0 0 0 .45c0 .06.11.12.15.16s.1.17.16.21h.11a.3.3 0 0 1 .14.23v.7a.84.84 0 0 0 .32.38.4.4 0 0 0 .48-.06c.17-.17.12-.45.11-.67A.87.87 0 0 1 101 46a6 6 0 0 1 .41-.58 1.92 1.92 0 0 1 .44-.36.58.58 0 0 0 .23-.18c0-.07.08-.16.13-.23s.42-.32.54-.06 0 .28 0 .4a1.3 1.3 0 0 0 .14.32c.25.36.42-.3.67-.07.06.06.09.11.16.17s.1 0 .12.14a3.16 3.16 0 0 1 0 .32v.18a.66.66 0 0 0 .22.32h0a.87.87 0 0 0 .07.17.68.68 0 0 1 .09.25.53.53 0 0 1 0 .13v.15a2.64 2.64 0 0 1 0 .28.58.58 0 0 0-.05.14c0 .16 0 .24.11.37a1.47 1.47 0 0 0 .1.22 2 2 0 0 0 .16.14c.07.07.12.14.18.21v.08h0l-.15-.05c-.1 0-.1-.12-.19-.17a1.42 1.42 0 0 1-.18-.08s0-.06-.1-.07h-.08l-.08-.08a3.23 3.23 0 0 0-.4-.35c0 .06-.11.14 0 .26l.3.3c.1.1.07.26.17.35s.11.08.15.13a.4.4 0 0 0 .15.14s.13 0 .18.07a1 1 0 0 1 .08.18v.05q0 .18-.09.33a.25.25 0 0 0 .12.15zm-32.71-4.83h-.07c-.07 0 0 0 0-.06s-.06 0-.08-.06 0-.05-.06-.06-.18 0-.25 0a2.87 2.87 0 0 1-.31.05s-.1 0-.13-.05 0-.06 0-.08 0 0-.08 0a.45.45 0 0 1-.12-.06.58.58 0 0 0-.14 0h-.1a.51.51 0 0 0-.23.07c-.06-.07-.11-.06-.15 0a.29.29 0 0 0 .14 0h.12c.04 0 0 .11 0 .16s.12 0 .2 0a.49.49 0 0 1 .17 0h.09.14a.13.13 0 0 0 .08 0 .2.2 0 0 1 .13 0h.07.13.11a.26.26 0 0 1 .12 0s0 .07.11.06A.4.4 0 0 0 72 45v-.07z"/><path d="M73.07 45.28h-.1a.59.59 0 0 1-.13 0h-.09-.14c-.04 0 0-.06-.09-.08h-.13s-.1.07-.11.12a1 1 0 0 0 .18.23h.16.1l.12.1a.28.28 0 0 0 .23 0s.07 0 .07-.07-.04-.28-.07-.3zM95 51.39h-.23a3 3 0 0 1-.32.54h-.09-.09a.33.33 0 0 0-.3.06c-.08.06-.11.08-.11.18v.33a1.31 1.31 0 0 1 0 .28 1.51 1.51 0 0 1-.13.29 2.49 2.49 0 0 1-.11.29.73.73 0 0 0-.12.34c0 .54.9.17.8-.17a1.57 1.57 0 0 0 .36-.69 2.81 2.81 0 0 0 .13-.33 1.14 1.14 0 0 1 .07-.32l.17-.29c.05-.08.1-.13.07-.22a.31.31 0 0 0-.1-.29zM84.74 37s.09.09.11.15a1 1 0 0 1 0 .38c0 .09.06.18.07.28a.66.66 0 0 1 0 .28l-.09.1a1.08 1.08 0 0 0-.08.19c0 .12 0 .16.09.22s.18.11 0 0a3.47 3.47 0 0 0 1-.23c.06 0 .2-.08.22-.16s-.28-.31-.4-.36-.33-.13-.37-.29a.68.68 0 0 0-.12-.22.85.85 0 0 1-.09-.22c0-.11.11-.13.17-.21a.38.38 0 0 0 0-.21c0-.19-.4-.29-.53-.13a.37.37 0 0 0 0 .29.49.49 0 0 0 .02.14z"/><path d="M84.1 37.38a.63.63 0 0 0-.09.43.59.59 0 0 1-.01.19c0 .08-.16.11-.17.2s.16.16.25.17.18 0 0-.1l.55-.59c-.1 0-.1-.11-.12-.16s-.1-.13-.15-.19-.16-.05-.26.05zM93.44 32c.07 0 .1.14.17.17s.13 0 .19-.07.24-.12.12-.24a3.55 3.55 0 0 1-.52-.64 1.22 1.22 0 0 0 .11-.5.52.52 0 0 1 .12-.34 3.64 3.64 0 0 1 .46-.63 4.38 4.38 0 0 0 .43-.24c.18-.16.36-.43-.21-.46-.14 0-.28.23-.37.35a8.6 8.6 0 0 1-.75.85 1.77 1.77 0 0 0-.49 1.37c.08.38.5.28.74.38zm-9.1-4.75a.56.56 0 0 0-.64-.25.87.87 0 0 0-.24.1l-.16.08a.62.62 0 0 1-.2 0H83h-.21 0 0a.27.27 0 0 0-.08-.07v-.14a.61.61 0 0 0 0-.14h0a.59.59 0 0 1 .18-.13h.07c.2-.05.35-.1.38-.22a.19.19 0 0 0-.09-.18 1.81 1.81 0 0 0-.37-.18h-.07a1.78 1.78 0 0 0-.52-.11 1.28 1.28 0 0 1-.32-.06c-.26-.08-.47.13-.62.28v.05a.87.87 0 0 1-.5.09h-.08a3 3 0 0 0-1.13.17 1.27 1.27 0 0 0-.42.27.61.61 0 0 0-.07.1.53.53 0 0 1-.13.13.45.45 0 0 1-.24 0h-.06a1.39 1.39 0 0 0-.62.16 1.11 1.11 0 0 0-.34.3.73.73 0 0 0-.17.37c0 .13-.2.27-.47.37a.47.47 0 0 0-.32.44 1 1 0 0 0 0 .17.19.19 0 0 1 0 .08.2.2 0 0 1 0 .15v.05a1.18 1.18 0 0 0 0 .2.19.19 0 0 0 .11.21s.12 0 .19-.08h.1a3.9 3.9 0 0 1 .48.21h0a.57.57 0 0 0 .11.11.81.81 0 0 1 .16.52 1.2 1.2 0 0 0 .21.58.86.86 0 0 1 .1.16.42.42 0 0 1 .06.24.6.6 0 0 1-.13.23l-.08.12a.82.82 0 0 0-.14.58.66.66 0 0 0 .28.31h.07a.29.29 0 0 1 .1.07s0 .12-.19.31l-.1.1a1.54 1.54 0 0 0-.33.43.53.53 0 0 0 .22.73l.12.09v.2a1.36 1.36 0 0 0-.11.42h0a.76.76 0 0 0 0 .49.86.86 0 0 0 .39.34.74.74 0 0 0 .28.06.4.4 0 0 0 .35-.18 1.41 1.41 0 0 0 .13-.24.5.5 0 0 1 0-.13h0a3.3 3.3 0 0 1 .23-.41 1.59 1.59 0 0 1 .39-.33 2.35 2.35 0 0 0 .32-.23 1.51 1.51 0 0 0 .22-.28 1 1 0 0 1 .25-.29.38.38 0 0 1 .19 0h.12a4.6 4.6 0 0 0 .77-.2c.19-.06.63-.25.68-.65 0-.18.06-.34.09-.47s0-.1.05-.14l.06-.16a.94.94 0 0 0 0-.38v-.06a1.08 1.08 0 0 1 0-.47.43.43 0 0 1 .16-.26l.1-.08a.77.77 0 0 0 .23-.21.45.45 0 0 0 0-.25.17.17 0 0 1 0-.07A.77.77 0 0 1 83 30v-.23-.1a.57.57 0 0 1 .08-.32l.05-.07a.72.72 0 0 0 .16-.34c0-.11 0-.21.07-.32a.76.76 0 0 0 0-.15.37.37 0 0 1 0-.11 1.77 1.77 0 0 1 .19-.33.29.29 0 0 1 .16-.12l.17-.09.21-.09a.37.37 0 0 0 .23-.18.49.49 0 0 0 .02-.3zm-8.16 6.27a.79.79 0 0 0 .19-.36.65.65 0 0 0-.16-.38.56.56 0 0 0-.16-.18 2 2 0 0 0-.22-.09.64.64 0 0 1-.25-.33.85.85 0 0 1 0-.42.57.57 0 0 0-.17-.42 1.45 1.45 0 0 0-.17-.18s-.09 0-.12-.06a3.76 3.76 0 0 1-.42-.62c0 .12 0 0-.12 0s-.18 0-.22-.05.06-.22.08-.3a.48.48 0 0 0 0-.24.35.35 0 0 0-.35.13c-.16.18-.37.29-.52.48s-.13.2-.22.14 0-.24 0-.32a.58.58 0 0 1 0-.23c0-.12.2-.29.19-.41-.35 0-.63.51-.77.56-.17.28-.17.26-.08.35s.09.07.09.13-.06.17-.06.26a1.61 1.61 0 0 0 0 .31c0 .23.2.48.46.37.09 0 .16-.13.25-.16a.42.42 0 0 1 .27 0 .34.34 0 0 1 .18.09.39.39 0 0 0 .16.15c.21.1.17.35.17.55a.68.68 0 0 0 0 .28.22.22 0 0 1 0 .28 3.57 3.57 0 0 1-.75.64s-.31.18-.32.24a.06.06 0 0 0 0 .07h.16.24c.17 0 .42 0 .5.16s.16.22.22.34 0 .12.1.15.11 0 .16.06a1.74 1.74 0 0 0 .19.1l.39.12c.21.06.43-.08.37-.31a.51.51 0 0 0-.24-.26.39.39 0 0 1-.19-.26c-.07-.18 0-.52.19-.54a.63.63 0 0 1 .3.1c.1 0 .2.07.3.11s.12.09.2.06a.63.63 0 0 0 .15-.11z"/><path d="M73.22 28.2c-.25 0-.28.2-.28.41s0 .38.17.45.42 0 .54.15.14.28.34.3.22 0 .33 0h.16c.08 0 .26 0 .26-.12a.38.38 0 0 0-.19-.3 1.15 1.15 0 0 0-.45-.09.5.5 0 0 1-.28-.14s-.17-.11-.17-.18.54-.12.65-.12c.4 0 .59.2.94.42-.15 0-.18.16-.07.2a.54.54 0 0 0 .25 0c.11 0 .07-.18 0-.27s-.12-.21 0-.31.31-.09.44-.17 0-.26 0-.36c0-.33.08-.31.62-.69l.17-.08.54-.2c.1 0 .3-.05.34-.17s-.17-.06-.23-.08a.32.32 0 0 1-.17-.11c-.11-.19.24-.26.36-.26a2.76 2.76 0 0 1 .4.06.71.71 0 0 0 .32-.1c.25-.1.56-.09.76-.3a.45.45 0 0 0-.09-.63c-.09-.07-.19-.19-.3-.21a2.72 2.72 0 0 0-.64 0h-1a1.61 1.61 0 0 0-.9-.08 1.49 1.49 0 0 0-.46.12s-.21.08-.23.14 0 .1 0 .14v.29c0 .1 0 .1.09.17s0 .15 0 .25 0 .07-.07.09a.41.41 0 0 1-.27 0c-.13-.05-.12-.18-.12-.3a1.53 1.53 0 0 1 0-.3c0-.05.14-.18.1-.24a.93.93 0 0 0-.33.07 1.17 1.17 0 0 0-.26.1 1.54 1.54 0 0 0-.42.46l-.25.37c-.07.13-.27.64 0 .72a1.69 1.69 0 0 0 .45 0 1.76 1.76 0 0 1 .23 0 .31.31 0 0 1 .27.26.7.7 0 0 1-.08.4c-.05.11-.17.1-.28.12a1.11 1.11 0 0 0-.3.08l-.23.14a.29.29 0 0 1-.31 0c-.06 0-.09-.09-.15-.11zm.06-.99a2 2 0 0 0 .08-.22.28.28 0 0 0-.06-.28c0-.05-.19-.15-.24-.13s-.16.16-.21.21a.33.33 0 0 0-.11.13c0 .08 0 .16-.08.23a1.58 1.58 0 0 0 .51.28.61.61 0 0 1 .11-.22zm-.62.97a2.23 2.23 0 0 0-.35.4v.07c0 .01-.09 0-.11 0s-.1-.24-.16-.35-.12-.06-.17 0a.45.45 0 0 0 0 .42.56.56 0 0 0 .28.2c.15.05.24 0 .38-.07s.15 0 .2-.13a.52.52 0 0 0-.07-.54zm-.5 1.31a1.65 1.65 0 0 0-.66.13v.36a.42.42 0 0 1-.08.3c0 .06-.12.15-.08.23s.25.09.34 0a.67.67 0 0 0 .32-.21c0-.1 0-.21.15-.26s.21-.05.26-.17a.27.27 0 0 0-.25-.38zm-1.49.32c.09-.08.15-.07.25-.11a.36.36 0 0 0-.1-.3c-.13-.11-.28 0-.36.12s-.17.24-.27.29-.27-.06-.34-.15a1 1 0 0 0-.12-.19c-.06-.06-.08 0-.16-.07s-.07-.08-.09-.17l-.08-.3c-.02-.1-.05-.37-.24-.48a.41.41 0 0 0-.51.05 1.25 1.25 0 0 0-.53 1 .93.93 0 0 0 .26.51.83.83 0 0 0 .13.14.46.46 0 0 0 .23.06c.39.08 0 .53-.09.74s0 .21.08.25a.81.81 0 0 0 .55-.07c.14-.07.41-.25.58-.17s.08.07.12.11a.37.37 0 0 0 .19.11.94.94 0 0 0 .55 0s.12 0 .11-.09 0 0 0-.05-.07-.07 0-.21a2.47 2.47 0 0 1-.34-.78c.06-.05.09-.15.18-.24zm6.01 8.76c-.12-.06-.29.06-.43 0s-.23-.13-.23-.18a3 3 0 0 0-.57.28s-.13 0-.18.09 0 .09.08.14.15.17.24.18.12 0 .17-.07c.23-.1.46 0 .7 0s.21 0 .27-.14.07-.25-.05-.3zm6.83-4.15c.07-.1.08-.37-.06-.43s-.39.12-.48.19a.33.33 0 0 1-.23.1h-.12a2.19 2.19 0 0 0-.53 0c-.08 0-.27 0-.3.18a.43.43 0 0 0 .2.38.51.51 0 0 0 .45 0 3.86 3.86 0 0 1 .57-.12.94.94 0 0 0 .5-.3z"/></g><path d="M84,22a21.3,21.3,0,1,1-21.3,21.3A21.32,21.32,0,0,1,84,22m0-1a22.28,22.28,0,1,0,22.28,22.28A22.28,22.28,0,0,0,84,21Z" fill="#fff"/></svg>
